<?xml version="1.0" standalone="no"?>
<!DOCTYPE svg PUBLIC "-//W3C//DTD SVG 20010904//EN"
 "http://www.w3.org/TR/2001/REC-SVG-20010904/DTD/svg10.dtd">
<svg version="1.0" xmlns="http://www.w3.org/2000/svg"
 width="1440.000000pt" height="900.000000pt" viewBox="0 0 1440.000000 900.000000"
 preserveAspectRatio="xMidYMid meet">

<g transform="translate(0.000000,900.000000) scale(0.100000,-0.100000)"
fill="#000000" stroke="none">
<path d="M0 4500 l0 -4500 7200 0 7200 0 0 344 0 344 -37 -6 c-21 -3 -51 -5
-68 -4 -16 1 -49 2 -72 3 -24 1 -43 5 -43 10 0 5 5 9 11 9 5 0 7 5 3 11 -3 6
-17 8 -30 5 -13 -4 -65 -9 -116 -12 -51 -3 -105 -7 -121 -9 -90 -12 -261 -16
-247 -6 8 6 40 11 70 11 65 0 378 29 400 37 11 4 9 7 -9 14 l-23 9 23 25 c14
14 35 25 51 25 15 0 34 7 42 16 14 14 31 20 59 23 4 1 7 5 7 10 0 6 -12 6 -30
1 -36 -10 -41 6 -6 20 13 5 27 14 31 20 4 6 17 10 28 9 52 -4 77 1 77 16 0 14
-17 20 -47 16 -7 -1 -13 3 -13 9 0 5 14 10 30 10 34 0 38 9 12 30 -39 33 -78
53 -110 57 -19 2 -43 8 -53 13 -23 13 -52 13 -44 0 7 -11 -8 -14 -18 -3 -4 3
1 12 11 20 15 12 14 13 -9 7 -21 -4 -28 -1 -33 18 -5 14 -9 18 -13 11 -6 -16
-23 -17 -23 -2 0 17 -32 38 -55 38 -15 0 -11 -4 13 -15 17 -8 32 -15 32 -17 0
-2 -16 -3 -35 -3 -22 0 -35 5 -35 13 0 7 -4 13 -10 13 -5 0 -10 -4 -10 -10 0
-5 -7 -7 -15 -4 -14 6 -13 8 1 19 16 11 16 13 -2 23 -17 10 -15 12 16 13 19 1
41 2 47 2 7 -1 10 4 7 9 -8 12 46 4 75 -11 12 -7 25 -9 30 -6 5 3 24 -8 42
-25 22 -20 44 -30 64 -30 16 0 25 4 19 8 -6 4 -13 14 -17 24 -3 9 -19 19 -36
23 -17 4 -31 11 -31 16 0 5 -6 9 -13 9 -7 0 -42 34 -77 76 -36 42 -86 96 -113
119 -26 24 -43 45 -38 47 13 4 -150 179 -166 178 -12 0 -12 -11 0 -114 2 -22
-25 -33 -82 -35 -28 -1 -31 -3 -22 -15 13 -16 6 -20 -61 -32 -24 -4 -38 -2
-38 4 0 6 10 12 23 14 12 2 21 9 20 15 -2 7 6 17 17 23 11 6 20 8 20 4 0 -3 7
-1 15 6 8 6 18 9 22 7 5 -3 9 3 9 13 0 10 -5 16 -11 12 -17 -11 -35 -11 -35 0
0 5 -12 -4 -27 -21 -15 -17 -31 -31 -36 -31 -5 0 -1 7 7 16 20 20 20 38 0 55
-18 15 -58 24 -50 11 2 -4 1 -13 -3 -20 -5 -9 -13 -7 -29 8 -25 24 -72 29 -53
6 7 -8 23 -17 37 -20 14 -4 22 -11 19 -16 -3 -5 3 -13 12 -19 17 -10 17 -10 0
-11 -10 0 -15 -5 -12 -10 3 -6 0 -10 -8 -10 -18 0 -59 39 -52 50 3 5 -4 11
-14 15 -13 4 -18 12 -15 23 4 13 3 13 -7 -2 -10 -16 -8 -22 11 -36 19 -15 20
-18 6 -23 -9 -4 -16 -3 -16 2 0 4 -11 25 -25 46 -15 20 -24 39 -22 42 5 5 -37
53 -46 53 -3 0 6 -23 19 -51 14 -28 23 -54 20 -57 -3 -3 -6 0 -6 7 0 7 -6 11
-12 8 -8 -3 -14 5 -14 18 -1 13 -11 32 -21 42 -19 19 -32 23 -80 24 -13 1 -23
6 -23 11 0 7 -5 7 -13 0 -7 -6 -32 -14 -54 -16 -37 -5 -46 -2 -72 25 -17 17
-31 36 -31 42 0 7 -4 7 -12 -1 -10 -10 -10 -14 0 -21 10 -6 10 -10 -3 -21 -13
-11 -15 -10 -9 4 3 9 2 16 -4 16 -6 0 -12 -6 -15 -12 -6 -18 -14 -8 -19 21 -2
14 3 26 11 29 8 3 11 0 7 -7 -4 -6 -1 -11 8 -11 8 0 16 5 18 11 3 9 10 9 26 0
13 -7 21 -15 18 -19 -2 -4 10 -7 27 -7 44 1 127 44 127 67 0 29 27 20 48 -17
11 -19 12 -19 9 5 -1 18 3 25 18 25 12 0 19 6 17 14 -2 8 3 11 13 8 8 -4 22
-4 30 -1 11 5 6 18 -24 62 -47 69 -81 109 -81 95 0 -6 7 -16 15 -23 8 -7 15
-16 15 -21 0 -5 -7 -9 -15 -9 -8 0 -15 -5 -15 -10 0 -6 12 -9 26 -8 20 2 28
-3 35 -21 8 -21 8 -22 -7 -10 -20 16 -44 21 -44 8 0 -6 -6 -4 -14 3 -7 7 -12
18 -9 24 2 7 -8 17 -24 22 -17 6 -21 11 -10 11 9 1 17 7 17 15 0 8 6 16 12 18
7 3 3 7 -9 10 -17 5 -21 2 -18 -13 4 -21 -11 -24 -35 -9 -13 8 -12 10 3 10 9
0 17 5 17 10 0 6 -9 10 -20 10 -11 0 -20 3 -20 8 0 4 80 8 178 10 300 6 322 7
322 14 0 4 -103 5 -228 1 -161 -4 -234 -3 -248 5 -17 10 -17 11 9 12 21 0 27
5 27 23 -1 20 -2 21 -14 5 -7 -10 -16 -18 -20 -18 -8 0 24 52 39 62 6 5 6 8 0
8 -5 0 2 7 17 14 21 11 41 13 90 5 35 -5 83 -11 108 -15 25 -3 55 -12 67 -20
25 -16 37 -18 29 -5 -3 5 29 -2 72 -16 42 -14 86 -26 97 -28 11 -1 25 -3 30
-4 6 -1 3 -6 -5 -11 -11 -7 1 -9 38 -8 29 0 58 -4 65 -11 12 -12 37 -15 37 -3
0 4 -12 12 -27 19 -34 14 -225 69 -273 78 -19 3 -85 18 -146 32 l-111 25 -71
70 c-40 38 -72 74 -72 79 0 5 11 9 24 9 13 0 26 4 28 9 2 6 48 11 104 13 87 3
100 5 101 21 1 11 -5 17 -18 17 -26 0 -24 17 4 23 12 4 31 13 41 20 19 14 19
16 3 40 -9 15 -17 40 -17 57 0 16 -4 30 -10 30 -9 0 -15 -46 -12 -97 0 -14 -5
-23 -14 -23 -14 0 -17 15 -14 86 1 23 -3 45 -9 49 -7 4 -11 -6 -11 -28 0 -19
-7 -40 -15 -47 -14 -11 -19 -7 -16 13 1 4 -6 10 -14 13 -12 5 -13 9 -3 21 9
11 9 16 -3 23 -11 8 -15 -1 -17 -50 -2 -44 -7 -60 -17 -60 -11 0 -15 12 -15
40 0 22 -4 40 -10 40 -5 0 -12 11 -16 25 -11 45 -24 26 -21 -32 1 -36 -2 -58
-10 -60 -13 -5 -28 58 -19 82 3 8 0 14 -7 12 -9 -1 -13 32 -17 123 -5 131 -20
150 -27 36 -2 -33 -9 -63 -14 -67 -8 -4 -7 -8 2 -11 11 -4 12 -9 2 -27 -7 -11
-13 -39 -13 -61 0 -22 -4 -40 -9 -40 -5 0 -18 -3 -28 -6 -10 -3 -14 -2 -8 3 6
4 11 31 13 59 3 47 1 52 -20 57 -13 4 -24 2 -26 -3 -5 -14 -32 -12 -32 2 0 6
-3 8 -7 4 -4 -4 -8 -43 -9 -88 0 -47 -6 -84 -12 -86 -16 -5 -23 13 -24 73 -2
42 -5 54 -16 50 -7 -2 -10 0 -7 5 3 6 1 10 -4 10 -6 0 -11 7 -11 15 0 14 -34
55 -45 55 -3 0 -5 -7 -5 -15 0 -8 -7 -15 -15 -15 -8 0 -15 8 -15 19 0 10 -9
21 -20 24 -17 4 -20 0 -20 -34 0 -26 -4 -39 -14 -39 -10 0 -15 20 -18 73 -4
57 -10 79 -25 94 -16 16 -24 18 -32 10 -19 -19 -31 11 -31 81 0 34 -4 62 -9
62 -5 0 -7 -19 -4 -42 5 -32 3 -39 -7 -33 -10 6 -12 4 -7 -8 3 -9 2 -19 -4
-23 -6 -3 -14 -17 -20 -31 -11 -30 -24 -23 -33 19 -7 31 -8 32 -16 11 -16 -39
-30 -25 -30 29 0 35 -6 58 -17 71 -16 17 -18 41 -15 239 1 120 10 287 18 371
8 84 19 197 24 252 5 55 14 127 19 160 6 33 20 132 32 220 31 242 82 408 147
477 68 72 104 80 381 84 236 4 358 -6 345 -27 -4 -8 14 -14 136 -44 72 -18
140 -25 140 -15 0 15 -63 39 -100 38 -51 -2 -139 12 -146 23 -3 5 10 9 28 10
31 1 31 2 8 8 -14 5 -31 3 -38 -2 -9 -7 -16 -7 -24 1 -8 8 -5 14 13 20 13 5
31 12 39 15 8 3 -9 5 -38 3 -29 -1 -56 2 -59 7 -3 5 31 6 78 3 92 -6 157 6
166 32 3 9 15 28 27 41 l21 23 -36 -15 c-27 -11 -77 -15 -185 -16 l-149 -1
-34 45 c-18 25 -37 45 -42 45 -14 0 -10 -14 9 -32 30 -29 44 -49 38 -55 -3 -4
-71 -2 -151 4 -163 12 -167 15 -190 90 -19 62 -57 141 -72 147 -11 5 -3 -39
12 -64 4 -6 -5 -8 -25 -4 l-30 6 15 -41 c16 -47 11 -51 -28 -16 -16 15 -27 21
-27 13 -1 -7 -9 10 -18 38 -19 55 -52 99 -52 70 0 -23 -17 -20 -23 4 -3 11
-10 20 -15 20 -6 0 -8 -9 -5 -20 6 -24 0 -25 -22 -3 -14 14 -18 14 -26 2 -6
-10 -9 -2 -9 24 0 36 -1 37 -35 37 -19 0 -35 -4 -35 -10 0 -5 9 -10 20 -10 11
0 20 -7 20 -15 0 -18 -1 -18 -36 0 -16 8 -36 15 -45 15 -24 0 -39 21 -29 40 6
11 5 17 -3 18 -7 1 -34 4 -62 7 -35 4 -44 2 -30 -4 11 -5 32 -10 48 -10 29 -1
36 -15 11 -25 -8 -3 -13 -2 -10 3 3 5 -4 9 -17 9 -40 -1 -227 26 -227 32 0 3
-9 6 -20 7 -11 1 -19 -3 -17 -9 1 -5 -8 -14 -20 -19 -15 -5 -23 -5 -23 2 0 5
-11 7 -25 5 -13 -3 -24 -2 -24 2 5 33 -22 34 -118 7 -64 -19 -73 -18 -48 2 19
15 19 15 -5 9 -14 -4 -46 -11 -73 -16 -26 -5 -57 -14 -68 -20 -25 -14 -167
-14 -269 0 -142 18 -162 10 -35 -16 65 -14 121 -27 124 -30 5 -5 -13 -20 -33
-27 -4 -1 -3 -20 3 -41 5 -22 8 -42 6 -46 -2 -4 -58 -13 -125 -20 -66 -8 -120
-16 -120 -19 0 -3 37 -7 82 -8 181 -4 243 -11 318 -37 41 -15 111 -35 155 -46
180 -42 323 -72 374 -77 121 -13 192 -117 213 -311 11 -101 10 -139 -10 -345
-24 -252 -37 -352 -107 -817 -25 -170 -52 -293 -81 -371 -9 -24 -17 -51 -19
-59 -1 -8 -5 -22 -8 -30 -3 -8 -7 -24 -9 -34 -2 -11 -9 -21 -16 -24 -11 -3
-13 16 -11 97 4 156 -11 143 -26 -22 -5 -47 -10 -65 -18 -60 -7 4 -7 0 1 -9
11 -14 10 -18 -6 -27 -11 -6 -22 -7 -26 -4 -3 3 -6 45 -6 92 0 76 -2 83 -14
65 -8 -11 -17 -41 -21 -67 -7 -43 -25 -67 -25 -32 0 8 -4 15 -10 15 -5 0 -10
-4 -10 -10 0 -5 0 -12 0 -15 0 -8 -39 -45 -48 -45 -11 0 -41 37 -35 44 3 2 -2
15 -11 28 -16 22 -16 22 -16 -16 0 -30 -3 -37 -17 -34 -10 2 -17 8 -16 14 1 5
4 26 8 48 6 31 5 38 -6 34 -8 -3 -14 -13 -15 -24 -1 -10 -2 -31 -3 -47 -1 -19
-8 -30 -26 -37 -14 -5 -25 -14 -25 -20 0 -5 -5 -10 -11 -10 -6 0 -10 10 -9 22
1 13 2 37 1 53 -1 22 -4 26 -10 15 -6 -8 -7 -18 -5 -22 9 -14 -7 -48 -22 -48
-13 0 -19 24 -15 58 1 6 -3 12 -9 12 -5 0 -10 -11 -10 -25 0 -30 -31 -50 -50
-32 -12 10 -12 9 -2 -4 10 -13 9 -19 -3 -29 -13 -10 -15 -9 -16 11 -1 13 -1
27 0 32 3 17 -41 5 -46 -13 -3 -11 -9 -20 -14 -20 -5 0 -9 -9 -9 -19 0 -11 -4
-23 -10 -26 -6 -4 -10 10 -10 36 0 35 -2 40 -14 29 -8 -6 -16 -21 -18 -32 -2
-12 -9 -23 -17 -26 -11 -4 -12 2 -7 23 5 20 3 26 -6 23 -7 -3 -13 -13 -13 -24
0 -25 -35 -32 -36 -7 -1 10 -1 22 0 27 3 15 -10 46 -18 42 -3 -3 -7 -19 -6
-38 0 -30 -18 -57 -39 -58 -5 0 -6 21 -3 46 3 33 2 43 -6 35 -6 -6 -10 -27 -8
-46 1 -19 -2 -35 -8 -35 -17 0 -21 16 -11 48 4 18 5 34 1 37 -11 6 -28 -32
-36 -77 -7 -42 -18 -49 -57 -34 -28 10 -32 23 -28 74 1 13 -4 22 -12 22 -15
-1 -57 -30 -42 -30 6 0 11 -13 11 -29 0 -26 -3 -29 -18 -20 -32 17 -282 13
-382 -7 -11 -2 -73 -4 -138 -5 -65 0 -119 -4 -119 -8 0 -4 -18 -5 -40 -3 -22
2 -55 -2 -73 -9 -18 -8 -40 -12 -50 -11 -20 4 -214 -33 -252 -48 -16 -6 -25
-6 -25 0 0 6 1 10 3 10 1 0 33 11 71 24 63 21 67 24 42 30 -21 5 -25 10 -17
20 8 9 7 13 -4 13 -8 0 -12 -4 -9 -8 2 -4 -1 -11 -7 -14 -15 -10 -60 15 -52
28 4 7 -1 8 -12 3 -11 -4 -22 -2 -27 6 -6 10 -8 10 -8 1 0 -7 -4 -13 -10 -13
-5 0 -7 6 -4 14 3 9 -2 13 -18 12 -13 -1 -29 2 -35 7 -7 5 -24 6 -37 3 -14 -3
-28 -2 -31 4 -3 5 -28 10 -54 10 -26 0 -51 4 -57 9 -9 8 -44 18 -174 47 -85
19 -86 19 -120 39 -15 9 -49 14 -85 13 -33 0 -50 -3 -37 -5 12 -2 22 -8 22
-13 0 -6 -11 -5 -26 0 -31 12 -101 13 -108 1 -3 -4 -43 -12 -88 -15 -46 -4
-128 -16 -183 -27 -55 -10 -109 -19 -120 -18 -21 1 72 28 115 33 46 6 234 37
315 53 44 8 92 18 107 20 15 3 25 10 22 15 -8 12 59 0 116 -22 25 -9 70 -23
100 -30 30 -7 102 -25 159 -41 86 -24 111 -27 140 -19 46 13 74 13 66 0 -3 -5
-20 -10 -38 -10 -17 0 -27 -4 -21 -8 12 -11 126 -42 178 -48 23 -3 46 -7 53
-9 6 -2 19 7 28 21 9 14 20 22 26 18 6 -4 6 -11 -2 -20 -9 -11 -8 -14 5 -14
19 0 22 -16 4 -23 -9 -3 -7 -7 6 -12 10 -5 46 -3 80 4 74 15 72 14 261 40 83
11 170 23 194 27 l43 7 -33 15 c-19 8 -40 15 -46 15 -7 0 -13 4 -13 8 0 4 -15
11 -32 14 -18 4 -39 12 -45 17 -7 6 -13 7 -13 3 0 -4 -11 0 -25 9 -33 22 -38
20 -20 -8 l16 -23 -44 21 c-43 20 -54 43 -16 33 11 -3 19 -2 19 3 0 11 -54 20
-58 9 -5 -12 -49 -12 -57 1 -3 5 -18 7 -33 4 -15 -3 -36 -7 -47 -8 -11 -2 -19
-9 -17 -15 1 -6 -3 -11 -9 -11 -6 0 -9 7 -5 15 4 12 -4 14 -52 11 -31 -3 -67
-5 -79 -5 -22 -1 -34 -31 -13 -31 6 0 10 5 10 10 0 6 5 10 10 10 6 0 5 -8 -2
-20 -17 -27 -21 -26 -47 18 -12 20 -20 29 -17 20 8 -25 -19 -29 -75 -11 -29
10 -47 19 -41 21 6 2 20 -2 31 -8 17 -8 24 -7 40 9 11 11 30 21 43 24 21 4 21
4 -4 6 -16 0 -31 -6 -37 -16 -8 -15 -13 -15 -33 -5 -29 16 -174 12 -171 -5 2
-12 -34 -6 -52 8 -6 4 -17 4 -25 -1 -8 -5 -38 -7 -66 -4 -33 4 -54 2 -58 -5
-5 -7 -1 -9 8 -5 9 4 16 1 16 -6 0 -9 -11 -10 -42 -5 -24 4 -61 7 -83 6 -22
-1 -49 5 -59 12 -17 12 -7 14 79 16 54 1 103 5 109 10 6 4 25 7 43 6 17 0 29
3 27 7 -3 4 -18 8 -35 8 -19 0 -29 5 -29 15 0 8 0 18 0 23 0 4 6 7 13 7 6 0
12 -5 12 -12 0 -6 3 -15 8 -19 4 -4 7 -2 7 4 0 6 7 9 15 6 9 -4 19 3 26 20 7
14 16 26 20 26 10 0 5 -25 -8 -42 -9 -11 -8 -17 8 -27 18 -10 24 -9 43 12 19
21 21 27 9 42 -7 10 -16 15 -20 11 -4 -4 -1 -11 7 -16 8 -5 11 -12 8 -15 -9
-9 -28 3 -28 19 0 7 14 22 30 35 l31 22 -6 -24 c-6 -22 -4 -24 19 -20 30 6 33
-2 8 -25 -10 -10 -13 -14 -7 -10 6 4 17 3 25 -2 9 -6 17 -5 22 3 13 20 9 26
-22 42 -16 9 -30 22 -30 29 0 24 -31 28 -37 6 -8 -29 -21 -25 -16 4 4 20 1 24
-13 21 -11 -2 -25 -4 -32 -4 -7 -1 -11 -5 -7 -11 3 -5 12 -7 20 -3 9 3 15 -1
15 -10 0 -18 -30 -32 -30 -14 -1 7 -5 6 -13 -4 -9 -12 -18 -14 -36 -7 -14 5
-30 7 -37 4 -9 -3 -11 1 -7 12 6 15 5 15 -10 3 -26 -21 -20 -1 7 24 21 19 26
20 38 8 15 -14 48 -8 48 9 0 5 5 6 12 2 7 -4 8 -3 4 5 -4 6 -12 9 -17 6 -11
-7 -49 3 -48 13 2 17 -14 51 -22 47 -4 -3 -6 -13 -3 -23 5 -14 4 -15 -5 -2 -9
13 -12 13 -20 1 -7 -11 -13 -10 -32 9 -24 22 -24 22 -1 11 23 -12 62 0 62 20
0 6 -4 7 -10 4 -5 -3 -10 -2 -10 4 0 5 -3 17 -7 27 -5 13 -3 16 10 11 9 -3 17
-3 17 2 0 5 -27 8 -60 7 -33 0 -60 2 -60 5 0 4 -9 9 -20 12 -11 3 -19 11 -18
18 2 7 -9 19 -24 26 -16 8 -28 21 -28 29 0 7 -9 14 -20 14 -11 0 -40 5 -64 12
l-45 12 37 16 37 17 -30 15 c-41 22 -81 27 -77 10 1 -8 -2 -11 -8 -7 -6 3 -8
10 -5 15 13 20 -128 43 -180 29 -20 -6 -48 -6 -67 -1 -28 7 -33 13 -30 35 2
21 -2 27 -17 27 -11 0 -21 5 -23 11 -3 8 -10 6 -20 -5 -9 -9 -19 -12 -23 -7
-6 11 -45 10 -45 0 0 -4 -46 -6 -102 -3 l-103 5 28 -27 c36 -33 29 -41 -14
-15 -21 13 -42 18 -57 14 -16 -4 -28 0 -38 13 -10 13 -13 14 -12 4 2 -9 -6
-15 -20 -16 -12 -1 -25 -4 -29 -7 -3 -4 -18 0 -34 8 -15 8 -47 15 -70 15 -30
0 -50 6 -67 22 -25 24 -66 28 -167 14 -99 -14 -100 -14 -80 -36 10 -11 24 -20
32 -20 7 0 13 -4 13 -10 0 -5 -11 -10 -25 -10 -14 0 -25 5 -25 10 0 14 -34 12
-49 -2 -10 -11 -15 -10 -24 3 -17 23 -56 41 -73 35 -9 -3 -14 1 -14 14 0 19
-5 21 -53 24 -10 1 -21 6 -25 11 -8 11 -49 17 -71 9 -11 -4 -10 -8 5 -19 17
-13 16 -14 -16 -8 -19 4 -48 7 -65 6 -16 -1 -56 -2 -87 -2 -37 -1 -62 -6 -72
-17 -9 -8 -16 -12 -16 -9 0 4 -11 0 -25 -9 -36 -24 -45 -20 -45 18 0 41 -21
60 -57 53 -18 -3 -37 2 -53 13 -17 12 -31 16 -40 10 -8 -5 -26 -6 -39 -3 -20
5 -23 3 -18 -11 9 -24 -9 -20 -30 7 -14 18 -28 23 -60 23 -22 -1 -39 -4 -36
-8 7 -13 -22 -9 -36 4 -10 11 -15 9 -26 -6 -13 -18 -15 -17 -39 10 -14 16 -26
31 -26 35 0 7 -73 5 -85 -3 -11 -7 -52 19 -43 27 3 3 15 2 28 -3 26 -10 70 -4
70 9 0 5 -13 9 -28 9 -16 0 -49 15 -78 35 -27 19 -55 35 -62 35 -7 0 -10 5 -6
11 4 7 0 9 -14 5 -11 -4 -23 -2 -27 4 -3 5 1 10 9 10 23 0 20 17 -4 23 -11 3
-20 11 -20 17 0 8 9 10 26 6 17 -5 23 -3 19 4 -4 6 -8 22 -10 36 -3 29 18 27
23 -2 6 -28 21 -41 31 -25 7 10 14 10 40 -3 17 -9 31 -13 31 -10 0 4 8 0 18
-8 22 -19 60 -29 68 -17 3 5 -5 9 -17 9 -12 0 -37 14 -56 30 -23 21 -41 29
-54 25 -23 -8 -24 1 -4 22 13 12 18 13 31 2 12 -10 20 -7 45 17 26 25 32 27
51 15 17 -11 22 -11 29 1 5 8 9 9 9 2 0 -16 46 -27 93 -25 21 2 49 -4 62 -13
16 -10 25 -12 27 -4 3 8 10 8 25 -1 28 -14 63 -14 63 0 0 17 -32 38 -57 39
-36 0 -27 16 17 30 37 12 42 12 63 -7 41 -38 71 -37 113 2 20 19 41 35 45 35
5 0 9 7 9 16 0 12 6 15 24 10 13 -3 26 -2 28 4 2 7 32 14 91 19 4 1 7 10 7 21
0 26 36 27 49 1 6 -10 23 -20 38 -23 24 -3 28 0 28 19 0 15 -8 24 -22 28 -25
6 -31 23 -10 29 50 16 65 16 61 -2 -4 -14 2 -18 32 -20 21 -1 41 3 45 9 4 7
31 14 61 17 57 4 72 -4 80 -43 2 -16 11 -20 40 -20 35 0 36 1 31 29 -5 24 -3
28 10 23 10 -4 17 -2 17 2 0 5 9 7 21 4 11 -3 31 0 44 7 13 7 30 10 39 7 8 -3
20 1 26 8 9 11 7 21 -9 44 -26 37 -28 71 -3 71 26 0 34 -11 20 -27 -9 -11 -7
-15 10 -20 12 -3 22 -9 22 -14 0 -5 7 -9 15 -9 10 0 15 -10 15 -26 0 -21 4
-25 20 -21 11 3 20 0 20 -5 0 -6 6 -5 15 2 13 11 18 10 28 -1 7 -8 39 -23 72
-33 33 -10 73 -24 88 -32 16 -8 41 -14 56 -14 15 0 32 -5 38 -11 5 -5 32 -16
59 -23 27 -8 58 -17 68 -22 16 -6 18 -4 13 9 -7 20 -3 21 24 7 13 -7 19 -7 19
0 0 15 -97 59 -119 53 -14 -3 -20 2 -25 21 -4 15 -16 36 -27 47 l-21 21 39 -4
c26 -2 37 1 35 10 -1 6 3 12 9 12 6 0 9 6 6 13 -8 22 27 37 64 27 17 -5 35 -7
40 -5 4 3 10 -4 14 -15 5 -17 12 -19 48 -14 40 6 41 6 22 -11 l-20 -17 20 7
c57 20 79 24 94 16 9 -4 40 -8 69 -9 40 -2 51 1 46 10 -6 10 -4 10 8 0 12 -10
18 -10 24 -1 4 6 0 16 -10 21 -9 5 -16 17 -16 26 0 15 2 15 10 2 6 -10 10 -11
10 -2 0 6 6 12 14 12 15 0 27 45 19 67 -3 7 -11 13 -18 13 -8 0 -16 4 -20 9
-3 6 30 -2 74 -17 61 -21 77 -30 69 -40 -6 -7 -8 -16 -4 -20 4 -4 16 3 26 15
20 25 62 30 79 10 8 -10 7 -17 -1 -25 -9 -9 -7 -12 11 -12 12 0 19 4 16 10
-10 17 4 11 31 -12 44 -40 124 -61 124 -34 0 15 35 11 57 -6 7 -6 19 -5 32 1
31 17 97 8 124 -17 13 -12 26 -20 29 -17 3 3 11 -1 18 -10 10 -13 9 -15 -8
-15 -12 0 -24 -5 -28 -12 -5 -8 -2 -9 10 -5 10 4 26 7 37 7 17 0 18 3 9 20 -9
16 -8 18 5 14 8 -4 15 -10 15 -15 0 -5 5 -9 11 -9 6 0 2 12 -9 28 -10 15 -22
35 -25 45 -9 25 -56 41 -84 28 -17 -8 -26 -7 -37 4 -14 14 -46 11 -46 -4 0 -4
-28 -7 -62 -7 -53 1 -63 4 -60 18 2 11 -3 15 -15 14 -10 -2 -17 -10 -15 -19 2
-12 -4 -15 -24 -11 -18 3 -23 1 -18 -7 5 -8 3 -9 -5 -5 -7 5 -10 14 -7 22 3 9
-1 14 -13 14 -25 0 -32 10 -20 31 6 11 15 16 26 12 9 -4 21 1 29 12 8 10 14
15 14 11 0 -5 7 -3 15 4 13 11 21 10 44 -8 22 -16 30 -18 34 -8 3 7 -4 18 -15
25 -11 7 -17 15 -14 18 10 10 45 -28 40 -42 -7 -17 38 -28 48 -12 5 8 8 7 8
-5 0 -25 11 -22 37 10 l22 27 1 -24 c0 -20 2 -21 15 -11 12 10 15 10 15 -4 0
-23 52 -21 69 3 8 11 20 17 28 14 8 -3 20 2 27 12 11 16 13 16 19 2 3 -9 2
-19 -3 -22 -12 -7 -14 -65 -2 -65 17 0 72 41 72 54 0 10 7 13 21 11 12 -2 29
-1 38 4 21 11 41 3 41 -15 0 -8 10 -14 23 -14 12 0 32 -3 45 -6 12 -4 22 -2
22 4 0 6 -14 13 -31 17 -19 4 -34 16 -39 30 -11 30 -58 62 -95 67 -25 2 -30 7
-27 27 2 21 -1 23 -28 19 -16 -3 -30 -1 -30 4 0 5 -5 6 -11 2 -7 -4 -10 -1 -7
7 7 22 176 16 197 -7 9 -9 11 -14 4 -10 -6 3 -14 2 -18 -3 -5 -10 45 -40 102
-62 23 -8 24 -8 14 5 -7 9 -11 21 -9 28 3 7 -5 18 -16 23 -14 7 -21 20 -21 38
1 23 -2 26 -20 20 -32 -11 -213 -3 -238 10 -13 7 -21 19 -19 30 2 10 -3 17
-11 17 -8 0 -20 7 -27 15 -15 18 -32 10 -28 -13 2 -12 -3 -16 -17 -14 -11 2
-33 6 -50 8 -18 3 -46 -2 -70 -14 -21 -11 -49 -19 -62 -17 -22 2 -31 -9 -16
-18 5 -2 2 -2 -5 0 -7 1 -29 -4 -49 -12 -19 -8 -54 -15 -77 -15 -23 0 -51 -6
-61 -14 -14 -10 -26 -11 -44 -5 -16 7 -27 6 -31 -1 -14 -23 -70 -14 -100 15
l-30 29 -30 -22 c-30 -23 -50 -28 -50 -14 0 5 -24 14 -54 21 -30 7 -60 18 -66
26 -17 20 -70 0 -70 -27 0 -19 -5 -20 -92 -13 -71 5 -105 3 -155 -11 -51 -14
-68 -15 -86 -5 -13 7 -38 13 -55 13 -18 1 -36 8 -41 16 -5 8 -23 16 -40 17
-26 2 -29 0 -18 -13 10 -13 8 -14 -18 -8 -90 21 -118 25 -128 19 -21 -13 -63
-10 -99 9 -45 22 -43 22 -64 1 -11 -11 -29 -16 -55 -14 -27 2 -41 -2 -45 -12
-8 -23 -102 -29 -184 -12 -39 8 -120 15 -180 15 -115 0 -140 9 -140 50 0 11
-10 25 -22 31 -20 11 -21 10 -10 -3 10 -13 8 -15 -18 -14 -21 1 -30 6 -30 17
0 21 -44 30 -79 18 -14 -5 -35 -23 -46 -39 -11 -17 -24 -30 -30 -30 -20 0 -99
29 -82 29 10 1 16 4 14 9 -4 6 -146 7 -182 1 -19 -3 -187 11 -196 17 -5 3 -22
8 -37 10 -14 3 -47 18 -71 34 -24 16 -48 27 -52 24 -5 -3 -9 -1 -9 4 0 15
-127 30 -215 25 -44 -2 -87 -4 -95 -3 -8 0 -28 1 -44 1 -16 0 -34 6 -40 14 -6
7 -36 18 -66 24 -30 6 -75 17 -100 25 -52 16 -116 14 -133 -3 -9 -10 -7 -12
12 -9 32 4 38 -17 9 -34 -26 -15 -30 -37 -8 -56 12 -10 4 -12 -47 -10 -41 1
-68 -4 -79 -13 -10 -8 -15 -9 -11 -2 4 6 3 14 -3 18 -5 3 -10 3 -10 -2 0 -4
-23 -7 -51 -6 -58 1 -54 -14 5 -19 23 -2 43 -10 50 -20 13 -21 1 -35 -16 -20
-7 5 -30 13 -51 17 -20 4 -39 11 -42 15 -2 4 -28 -1 -57 -10 -79 -26 -93 -5
-39 63 9 10 10 17 3 17 -6 0 -19 -10 -29 -23 -16 -19 -26 -22 -80 -19 -37 2
-63 8 -63 14 0 7 -5 6 -15 -2 -8 -7 -15 -9 -15 -5 0 4 -6 3 -12 -3 -7 -5 -39
-10 -71 -10 -55 0 -92 -15 -82 -32 7 -11 -47 -28 -76 -24 -45 7 -54 7 -87 6
-20 -1 -31 -6 -27 -12 4 -7 -2 -9 -18 -5 -15 4 -35 1 -49 -8 -29 -19 -134 -12
-142 9 -4 10 2 14 19 14 13 0 27 4 30 10 3 6 3 10 -2 10 -30 0 -139 23 -149
31 -6 5 -35 11 -64 12 -53 3 -67 14 -69 54 -1 17 87 45 108 34 9 -5 52 -8 94
-5 52 3 77 0 77 -7 0 -6 9 -9 20 -6 11 3 30 -3 45 -15 14 -11 25 -15 25 -10 0
6 -7 13 -16 16 -8 3 -12 10 -9 16 4 6 -5 10 -19 10 -14 0 -26 4 -26 10 0 14
-70 24 -83 11 -6 -6 -29 -11 -51 -11 -32 0 -45 6 -75 38 -20 22 -57 51 -83 66
-32 19 -45 32 -41 42 4 10 -2 17 -16 21 -11 3 -21 11 -21 18 0 7 -24 24 -52
38 -47 22 -54 24 -65 10 -7 -9 -14 -20 -15 -25 -2 -6 -15 -5 -30 3 -20 8 -38
9 -67 2 -22 -6 -41 -7 -43 -3 -2 4 -21 10 -43 13 -22 3 -56 10 -75 16 -28 9
-37 8 -50 -5 -11 -12 -12 -18 -2 -21 6 -3 12 -9 12 -14 0 -14 -27 -11 -44 6
-8 8 -19 15 -25 15 -6 0 -11 5 -11 11 0 7 -8 9 -20 5 -11 -3 -28 -9 -39 -12
-14 -4 -21 1 -29 23 -10 27 -11 27 -17 6 -6 -18 -11 -21 -25 -13 -9 5 -21 6
-25 2 -4 -4 -5 2 -3 12 2 16 -6 22 -41 33 -25 7 -49 17 -55 23 -5 5 -14 10
-19 10 -6 0 13 -21 42 -48 43 -40 64 -72 46 -72 -10 0 -55 24 -55 29 0 3 -21
7 -46 8 -25 1 -51 7 -59 13 -9 8 -15 8 -20 0 -4 -7 -11 -5 -21 5 -9 8 -20 12
-26 9 -6 -4 -8 -2 -5 4 9 14 -2 42 -17 42 -6 0 -27 17 -46 38 -20 20 -40 37
-45 37 -29 1 -75 18 -75 28 0 6 -10 21 -21 33 l-21 23 52 -3 c45 -2 57 -7 80
-33 15 -17 37 -34 49 -38 12 -3 19 -11 16 -16 -8 -12 2 -11 26 1 22 12 26 35
5 27 -10 -4 -12 0 -8 16 2 12 9 28 15 35 6 8 6 12 -2 12 -6 0 -11 -4 -11 -10
0 -5 -12 -9 -27 -9 -17 1 -21 3 -10 6 9 2 17 9 17 14 0 6 -5 7 -10 4 -6 -4
-22 0 -35 9 -13 9 -31 16 -40 16 -8 0 -15 5 -15 10 0 6 -13 10 -30 10 -16 0
-30 -4 -30 -10 0 -5 -7 -10 -16 -10 -8 0 -13 3 -11 8 3 4 -1 13 -9 19 -7 7
-15 9 -18 4 -7 -11 -46 -2 -46 11 0 5 -4 7 -9 3 -5 -3 -12 -1 -16 5 -4 6 -11
7 -17 4 -6 -4 -13 -1 -17 5 -4 6 -18 14 -32 16 -13 3 -25 9 -27 15 -2 5 -8 10
-14 10 -6 0 -7 -8 -3 -17 5 -14 3 -15 -6 -6 -15 15 -1 36 20 27 9 -4 43 -8 76
-9 33 -2 80 -6 105 -9 27 -5 41 -4 35 2 -19 18 -101 33 -188 36 -137 4 -129
22 10 24 185 2 256 7 261 20 2 7 -5 11 -15 10 -48 -4 -83 3 -83 16 0 8 -8 17
-17 20 -10 3 1 4 23 2 31 -2 46 2 58 15 19 23 36 25 36 4 0 -8 4 -15 9 -15 4
0 7 -16 4 -35 -3 -32 -1 -34 32 -41 51 -9 44 -28 -7 -21 -24 3 -54 8 -68 11
-14 4 -19 4 -12 0 6 -3 10 -9 8 -13 -3 -4 35 -8 85 -10 61 -2 89 1 89 9 0 6
-5 8 -10 5 -6 -3 -10 -1 -10 6 0 8 12 10 40 5 25 -4 40 -2 40 4 0 5 5 10 11
10 5 0 8 -4 5 -8 -3 -5 17 -5 44 -1 48 7 93 4 113 -8 6 -3 7 -1 3 5 -4 7 -2
12 3 12 6 0 11 -6 11 -12 0 -10 2 -10 8 0 7 10 15 10 37 2 27 -10 158 -4 180
8 5 3 -4 12 -20 18 -33 14 -34 14 57 19 25 1 51 6 57 9 6 4 11 0 11 -8 0 -12
11 -16 46 -16 27 0 43 -4 39 -10 -3 -5 3 -10 14 -10 10 0 22 6 24 13 4 9 6 9
6 0 1 -7 8 -13 17 -13 10 0 14 6 11 14 -3 8 1 17 9 20 9 3 13 9 10 14 -2 4 20
5 50 2 30 -3 54 -2 54 2 0 4 -4 8 -10 8 -5 0 -10 7 -10 15 0 8 5 15 10 15 6 0
10 -4 10 -9 0 -4 11 -6 25 -3 15 2 25 0 25 -7 0 -6 9 -11 20 -11 11 0 20 7 20
16 0 8 4 13 9 10 5 -3 12 2 15 11 9 21 -8 31 -64 38 -25 3 -78 10 -117 16 -40
6 -77 8 -81 5 -5 -3 -24 0 -43 6 -19 6 -59 13 -89 17 -30 3 -54 11 -53 16 1 6
-10 11 -24 12 -14 0 -35 10 -46 22 -20 19 -20 20 -2 27 11 5 20 3 23 -4 5 -17
32 -15 32 3 0 8 5 15 11 15 6 0 9 -7 5 -15 -3 -8 0 -15 7 -16 29 -3 62 4 68
13 4 6 17 8 30 5 33 -8 212 -25 344 -33 61 -3 167 -14 237 -25 128 -19 242
-24 311 -13 69 12 34 41 -60 50 -32 3 -63 10 -70 15 -7 6 -22 7 -35 3 -20 -6
-103 -6 -305 0 -23 0 -44 4 -48 8 -4 4 -20 4 -36 1 -18 -3 -29 -1 -29 6 0 6
-14 11 -31 11 -17 0 -28 4 -24 10 3 6 0 10 -8 10 -11 0 -13 -7 -9 -22 5 -20 4
-21 -11 -10 -9 8 -21 11 -26 7 -6 -3 -19 -1 -28 4 -16 9 -15 11 7 12 16 1 19
3 8 6 -9 2 -25 0 -35 -5 -11 -5 -31 -4 -52 3 -34 12 -34 12 -12 24 12 7 36 10
54 6 24 -5 28 -4 17 4 -8 6 -34 13 -58 17 -55 8 -46 18 14 15 58 -3 57 21 -2
30 -21 3 -30 7 -19 9 31 4 87 2 118 -6 19 -4 27 -3 27 7 0 10 2 11 8 2 14 -22
411 -44 500 -28 78 14 39 35 -78 41 -71 3 -180 20 -188 29 -5 5 25 8 91 9 19
1 34 10 48 31 12 18 19 23 17 12 -2 -13 12 -24 57 -43 56 -24 76 -26 285 -33
124 -4 251 -6 283 -4 32 1 69 -2 82 -7 18 -7 28 -6 37 4 10 11 15 11 23 1 6
-9 49 -15 121 -19 94 -5 113 -3 118 9 3 8 13 15 23 15 17 -1 17 -2 -1 -15 -28
-21 -16 -23 204 -34 167 -9 198 -8 218 5 15 10 28 12 40 5 9 -5 80 -10 157
-11 198 -4 247 -2 240 10 -3 5 -16 10 -28 9 -12 0 -65 5 -117 10 -179 18 -312
26 -625 37 -93 3 -174 9 -180 14 -5 4 -83 8 -172 8 -88 1 -178 5 -200 10 -52
14 -193 15 -173 2 13 -8 12 -10 -3 -10 -10 0 -25 7 -33 15 -9 9 -31 14 -55 13
-23 -1 -44 3 -47 8 -4 5 -42 10 -84 11 -68 2 -78 1 -78 -15 -1 -15 -2 -15 -15
2 -16 21 -76 27 -127 13 -22 -6 -28 -4 -28 8 0 8 -4 15 -10 15 -5 0 -7 -7 -3
-16 5 -15 0 -16 -43 -9 -27 4 -53 12 -57 18 -6 9 -10 9 -14 0 -6 -17 -103 -18
-103 -2 0 8 13 9 40 5 22 -3 40 -3 40 1 0 5 -19 9 -43 11 -23 1 -48 9 -56 17
-10 9 -21 11 -37 4 -14 -5 -24 -5 -24 1 0 15 33 20 105 14 46 -3 67 -2 60 5
-5 5 -21 12 -35 15 -14 2 31 3 100 1 122 -4 227 -24 240 -45 5 -8 19 -5 44 6
32 16 44 17 104 6 37 -7 72 -14 77 -16 58 -18 67 -18 83 -2 15 15 14 16 -13
18 -17 0 -36 1 -42 1 -7 -1 -13 7 -13 17 0 15 -5 17 -35 10 -20 -4 -38 -4 -41
1 -3 5 -26 9 -52 8 -135 -4 -381 25 -277 33 17 1 42 1 58 0 17 -1 27 3 27 12
0 8 -6 13 -12 13 -12 -1 -147 15 -158 19 -3 0 -19 5 -37 9 -18 4 -31 12 -30
18 2 11 -4 13 -60 15 -18 1 -33 6 -33 10 0 5 15 7 33 6 17 -2 3 3 -33 11 -36
7 -92 16 -125 20 -33 3 -87 12 -120 20 -33 8 -96 17 -140 20 -93 5 -135 10
-190 24 -22 6 -55 8 -73 6 -18 -2 -32 0 -32 5 0 6 -21 10 -47 10 -37 0 -45 3
-33 11 12 8 8 9 -16 5 -17 -3 -35 -1 -40 4 -5 5 -45 13 -89 19 -72 8 -66 9 50
4 191 -8 207 -8 238 -1 16 4 25 3 22 -3 -4 -5 6 -9 20 -9 14 0 24 4 21 9 -3 5
1 11 9 15 10 4 15 -1 15 -14 0 -11 5 -20 11 -20 5 0 7 5 4 10 -3 6 -1 10 4 10
6 0 11 -6 11 -12 0 -10 3 -9 9 1 7 11 9 11 14 0 4 -12 7 -11 16 1 9 12 12 13
20 1 6 -9 10 -10 16 -2 4 8 11 9 18 3 16 -13 157 -23 157 -11 0 5 -10 9 -22
10 -17 1 -14 3 11 11 26 7 31 12 21 18 -18 11 -3 18 55 23 31 3 27 4 -18 5
-39 1 -56 6 -51 13 4 7 -4 10 -22 8 -16 -2 -34 0 -40 3 -6 4 -28 8 -50 9 -21
1 -44 7 -51 12 -7 5 -16 6 -21 3 -5 -3 -9 1 -9 8 0 14 26 18 42 7 6 -4 17 -7
25 -6 8 1 28 3 43 3 17 1 26 6 22 12 -4 6 -14 10 -23 9 -37 -3 -50 2 -55 24
-6 22 -6 22 9 2 13 -17 16 -18 25 -5 8 11 12 12 16 3 8 -20 25 -15 19 5 -6 16
0 19 44 21 37 1 52 -3 56 -14 4 -8 14 -15 23 -15 14 0 14 2 1 10 -12 8 -11 10
7 10 12 0 30 -8 39 -17 16 -16 17 -16 12 -1 -8 20 1 31 16 20 6 -5 22 -3 36 4
25 14 25 14 -12 14 -21 0 -38 4 -38 9 0 12 39 21 46 10 3 -5 10 -7 15 -4 5 4
12 -1 15 -10 4 -10 16 -15 29 -13 12 1 30 -3 39 -11 9 -7 16 -9 16 -3 0 5 -8
13 -17 16 -15 6 -15 8 -3 16 20 13 73 13 65 0 -3 -5 1 -10 10 -10 9 0 14 3 12
8 -3 4 8 8 25 9 22 2 29 -1 24 -12 -3 -8 -1 -17 3 -20 5 -2 11 4 14 14 4 15
11 18 27 14 18 -5 21 -3 15 8 -5 8 -5 11 0 7 4 -4 15 -2 23 5 13 10 15 9 9 -5
-4 -12 -2 -18 8 -18 8 0 15 -8 16 -17 0 -14 2 -15 6 -3 4 8 12 20 19 27 15 15
38 17 29 3 -3 -5 3 -10 14 -10 12 0 21 4 21 10 0 5 13 7 30 4 20 -4 30 -2 30
5 0 7 5 9 12 5 19 -12 79 -10 90 3 8 10 14 7 28 -10 16 -19 19 -20 25 -6 6 16
43 15 55 -1 3 -4 14 -4 25 1 17 6 17 8 3 8 -10 1 -18 6 -18 12 0 7 8 9 23 4
12 -4 49 -11 82 -15 48 -7 63 -5 77 7 15 13 16 13 11 -6 -5 -19 -3 -20 18 -13
28 11 111 5 119 -9 3 -4 12 0 20 11 14 20 37 29 25 10 -10 -16 25 -25 46 -12
13 9 19 8 23 -1 3 -9 6 -9 13 0 7 9 23 10 63 4 39 -6 57 -6 62 3 5 7 8 5 8 -6
0 -10 4 -18 10 -18 5 0 7 7 3 16 -4 12 0 14 23 8 16 -4 34 -11 41 -16 8 -6 13
-2 18 11 3 12 11 21 16 21 6 0 7 -5 3 -11 -4 -7 12 -9 55 -5 l62 5 -23 -20
c-13 -11 -17 -17 -9 -13 8 4 38 6 68 5 35 -1 52 2 48 9 -8 13 27 0 38 -14 5
-6 5 0 2 12 -6 22 -5 23 14 13 12 -7 21 -15 21 -19 0 -4 19 -7 42 -7 32 0 46
5 55 20 12 19 12 19 13 -5 1 -14 4 -19 7 -12 2 6 14 12 24 12 13 0 17 -4 13
-11 -4 -7 -1 -10 7 -7 8 3 13 13 13 22 -2 13 1 14 11 6 8 -6 12 -19 9 -28 -2
-9 1 -7 7 5 l12 22 19 -22 c18 -21 19 -21 14 -2 -4 14 1 23 19 32 14 6 23 8
21 4 -2 -3 2 -14 9 -24 11 -15 15 -16 27 -4 11 12 16 12 26 0 7 -7 11 -17 8
-21 -2 -4 4 -8 15 -8 10 0 21 8 24 17 4 11 14 15 33 12 15 -2 53 -4 85 -5 31
0 57 -4 57 -10 0 -5 13 -7 30 -3 21 5 37 1 54 -12 23 -16 25 -25 26 -95 0 -63
3 -78 15 -78 11 0 15 12 15 49 0 61 14 101 36 101 9 0 14 6 11 13 -3 8 3 14
14 14 11 1 17 -2 14 -7 -4 -6 3 -6 17 -1 13 5 22 15 20 22 -2 9 0 10 10 2 13
-11 62 -18 184 -26 34 -2 67 -8 74 -12 20 -12 194 -15 201 -3 4 7 12 7 26 0
11 -6 25 -7 33 -2 8 5 17 5 20 0 6 -10 122 -16 137 -7 6 4 13 2 15 -4 3 -9 79
-15 344 -23 45 -2 87 -6 93 -10 7 -5 26 -2 42 4 23 10 33 10 42 1 6 -6 20 -11
31 -11 17 0 18 2 6 10 -12 8 -11 10 8 10 12 0 22 -4 22 -10 0 -5 7 -10 16 -10
8 0 12 -4 9 -10 -3 -5 0 -10 8 -10 23 0 28 12 9 27 -11 8 3 6 36 -6 46 -17 53
-17 61 -4 6 11 10 12 15 4 4 -6 12 -11 17 -11 6 0 7 5 4 10 -3 6 -2 10 4 10 5
0 11 -6 14 -12 3 -10 7 -10 20 1 15 12 17 11 17 -3 0 -18 15 -21 25 -5 5 7 15
5 31 -6 22 -14 24 -14 24 2 1 17 1 17 14 0 12 -15 14 -16 20 -2 3 8 11 15 18
15 9 0 9 -3 -2 -11 -12 -9 -11 -10 8 -6 13 3 22 0 22 -6 0 -8 4 -7 9 2 5 7 14
10 20 7 18 -11 71 -16 71 -7 0 5 12 7 28 5 15 -2 40 -5 55 -6 15 0 30 -4 32
-9 3 -4 14 -5 25 -2 11 3 26 1 33 -5 15 -13 60 -4 51 9 -3 5 2 6 10 3 9 -3 16
-12 16 -20 0 -8 5 -14 11 -14 5 0 7 4 4 10 -3 6 1 10 9 10 9 0 16 -6 16 -12 0
-10 2 -10 8 0 6 9 32 11 98 7 95 -5 206 -14 264 -20 52 -5 258 -18 310 -19 25
-1 50 -4 55 -7 9 -5 119 -11 228 -13 20 -1 37 -3 37 -6 0 -3 31 -5 69 -5 43 0
67 4 64 10 -3 6 0 4 8 -2 16 -15 33 -17 24 -3 -3 6 -2 10 4 10 5 0 11 -4 13
-9 5 -15 59 -21 81 -9 16 8 22 7 29 -6 5 -9 14 -16 19 -16 6 0 7 5 4 10 -3 6
0 10 8 10 8 0 17 -6 20 -13 4 -10 30 -13 101 -12 53 1 96 -2 96 -7 0 -4 9 -8
20 -8 11 0 20 6 20 13 0 9 2 9 8 -1 9 -13 48 -17 267 -28 61 -3 111 -9 113
-15 2 -5 10 -9 18 -9 9 0 12 5 9 10 -4 6 13 10 44 10 27 0 53 -5 56 -11 4 -6
13 -8 21 -5 8 3 25 1 39 -4 16 -6 27 -6 31 2 4 7 23 8 53 3 25 -4 87 -8 136
-10 50 -1 105 -5 124 -10 19 -4 62 -7 95 -7 34 0 67 -5 74 -10 8 -7 12 -7 12
0 0 13 43 12 52 -2 4 -6 12 -5 22 3 11 9 20 10 35 2 11 -6 36 -11 56 -11 20 0
34 -4 31 -8 -3 -5 1 -9 9 -9 8 0 12 5 8 10 -3 5 2 5 13 -1 11 -5 51 -12 89
-16 39 -4 84 -9 100 -11 17 -3 83 -8 148 -11 119 -6 159 1 197 32 8 6 30 15
48 19 23 5 32 12 32 27 0 16 3 18 14 9 11 -9 15 -8 21 6 5 10 7 24 6 31 -1 6
3 12 10 12 6 0 9 8 6 20 -3 11 -1 23 5 26 5 3 7 12 4 19 -2 7 0 17 5 22 6 6 6
18 0 34 -5 13 -10 18 -10 10 -1 -8 -3 -12 -6 -10 -2 3 0 22 6 44 8 28 8 44 -2
61 -8 17 -9 27 -1 36 7 9 6 18 -4 32 -19 26 -18 44 4 49 15 4 15 5 -1 6 -10 0
-17 7 -14 14 2 6 11 11 20 11 14 -1 15 2 4 20 -11 19 -16 61 -20 171 -1 22 2
51 7 65 8 22 7 23 -8 11 -14 -12 -16 -10 -16 14 0 16 -9 34 -22 45 -13 10 -19
22 -15 27 5 4 13 0 18 -10 13 -23 25 -22 32 3 3 12 -1 24 -11 30 -15 8 -15 11
-2 20 8 5 10 10 4 10 -15 0 -23 41 -12 69 4 12 4 30 -1 39 -5 9 -12 58 -15
107 -10 136 -21 197 -39 210 -10 7 -17 15 -17 19 0 10 24 2 38 -14 12 -13 13
-13 8 3 -3 10 -6 23 -6 28 0 5 -6 9 -14 9 -14 0 -26 21 -26 46 0 8 5 14 10 14
6 0 10 -7 10 -16 0 -8 5 -12 10 -9 7 4 6 14 -2 28 -15 28 -18 97 -4 97 7 0 7
3 0 8 -17 11 -27 52 -25 100 0 23 -3 42 -7 42 -5 0 -8 27 -8 61 1 48 -3 64
-17 74 -15 10 -16 18 -8 33 7 14 6 24 -4 40 -8 11 -12 27 -9 35 3 8 1 18 -5
22 -6 3 -11 15 -11 26 0 10 -5 19 -11 19 -5 0 -7 4 -4 10 3 5 -5 15 -19 22
-33 14 -33 24 1 33 15 3 22 9 16 13 -10 7 -33 45 -33 56 0 2 12 6 28 9 l27 4
-32 7 c-22 6 -32 15 -36 32 -2 14 0 27 4 30 5 3 2 16 -7 30 -16 23 -16 24 2
17 11 -4 24 -14 31 -22 7 -9 13 -11 13 -5 0 6 -11 23 -25 38 -24 26 -42 36
-30 16 3 -5 1 -10 -4 -10 -6 0 -11 7 -11 15 0 8 5 15 11 15 7 0 5 9 -5 24 -8
14 -17 39 -18 56 -1 17 -8 36 -15 42 -8 6 -10 20 -7 34 5 19 3 23 -10 18 -13
-5 -16 0 -16 25 0 24 4 31 20 31 24 0 17 26 -17 55 -13 11 -23 28 -23 37 0 18
-33 42 -43 32 -3 -3 -11 4 -17 16 -10 18 -9 24 1 31 10 6 5 9 -14 9 -17 0 -26
4 -22 10 4 6 10 8 15 5 5 -3 11 -1 15 5 6 9 -8 14 -28 11 -5 -1 -6 3 -3 8 4 5
-1 17 -10 25 -10 11 -11 16 -3 16 6 0 18 -8 25 -17 10 -15 15 -16 26 -5 11 11
10 14 0 21 -8 5 -13 11 -13 15 3 20 -1 25 -14 20 -15 -6 -20 14 -16 58 2 12
-3 16 -12 12 -10 -4 -22 9 -38 40 l-23 46 -6168 0 -6168 0 0 -4500z m12380
4394 c0 -2 -7 -4 -15 -4 -8 0 -15 4 -15 10 0 5 7 7 15 4 8 -4 15 -8 15 -10z
m-12000 -114 c0 -5 -5 -10 -11 -10 -5 0 -7 5 -4 10 3 6 8 10 11 10 2 0 4 -4 4
-10z m12094 -136 c4 -9 4 -19 1 -22 -7 -8 -35 19 -29 29 8 14 21 11 28 -7z
m40 -90 c4 -11 2 -12 -14 -1 -11 6 -20 15 -20 19 0 12 28 -3 34 -18z m-5429
-34 c-3 -5 -10 -10 -16 -10 -5 0 -9 5 -9 10 0 6 7 10 16 10 8 0 12 -4 9 -10z
m5475 -155 c11 -13 10 -14 -4 -9 -9 3 -16 10 -16 15 0 13 6 11 20 -6z m62
-267 c-7 -7 -12 -8 -12 -2 0 14 12 26 19 19 2 -3 -1 -11 -7 -17z m38 -136 c0
-15 -2 -15 -10 -2 -13 20 -13 33 0 25 6 -3 10 -14 10 -23z m-3070 -70 c52 -32
113 -108 129 -162 23 -78 7 -203 -31 -237 -16 -14 -19 -15 -17 -3 1 8 0 22 -4
30 -3 8 -8 39 -11 68 -13 130 -95 280 -181 331 -17 10 -13 11 25 6 25 -3 65
-18 90 -33z m-7900 -47 c0 -8 -6 -15 -14 -15 -17 0 -28 14 -19 24 12 12 33 6
33 -9z m11012 -102 c-9 -25 -10 -21 -10 27 0 48 1 52 10 28 6 -19 6 -37 0 -55z
m-5572 -1218 c0 -43 -4 -75 -10 -75 -5 0 -10 13 -10 29 0 36 12 121 16 121 2
0 4 -34 4 -75z m-4693 -127 c-2 -24 -4 -5 -4 42 0 47 2 66 4 43 2 -24 2 -62 0
-85z m2333 12 c0 -5 -7 -10 -16 -10 -8 0 -12 5 -9 10 3 6 10 10 16 10 5 0 9
-4 9 -10z m-445 -20 c3 -6 -1 -7 -9 -4 -18 7 -21 14 -7 14 6 0 13 -4 16 -10z
m208 3 c-7 -2 -19 -2 -25 0 -7 3 -2 5 12 5 14 0 19 -2 13 -5z m2607 -3 c0 -5
-4 -10 -9 -10 -6 0 -13 5 -16 10 -3 6 1 10 9 10 9 0 16 -4 16 -10z m-4650 -30
c13 -8 13 -10 -2 -10 -9 0 -20 5 -23 10 -8 13 5 13 25 0z m1862 -12 c-10 -10
-44 0 -37 12 3 5 14 6 26 3 12 -3 17 -9 11 -15z m-58 -3 c-4 -8 -8 -15 -10
-15 -2 0 -4 7 -4 15 0 8 4 15 10 15 5 0 7 -7 4 -15z m-24 -27 c0 -6 -6 -5 -15
2 -8 7 -15 14 -15 16 0 2 7 1 15 -2 8 -4 15 -11 15 -16z m-1823 -38 c-1 -56
-17 -51 -17 6 0 25 4 43 9 40 5 -3 8 -24 8 -46z m6743 -20 c0 -5 -4 -10 -10
-10 -5 0 -10 5 -10 10 0 6 5 10 10 10 6 0 10 -4 10 -10z m-4683 -36 c-3 -3
-12 -4 -19 -1 -8 3 -5 6 6 6 11 1 17 -2 13 -5z m-400 -20 c-3 -3 -12 -4 -19
-1 -8 3 -5 6 6 6 11 1 17 -2 13 -5z m383 -4 c0 -5 -2 -10 -4 -10 -3 0 -8 5
-11 10 -3 6 -1 10 4 10 6 0 11 -4 11 -10z m280 -160 c0 -5 -5 -10 -11 -10 -5
0 -7 5 -4 10 3 6 8 10 11 10 2 0 4 -4 4 -10z m-4160 -160 c14 0 54 -21 92 -47
37 -27 95 -65 129 -86 34 -21 59 -40 57 -43 -3 -2 -49 7 -104 21 l-99 25 -62
68 c-35 37 -63 71 -63 77 0 5 5 4 12 -3 7 -7 24 -12 38 -12z m4067 4 c-3 -3
-12 -4 -19 -1 -8 3 -5 6 6 6 11 1 17 -2 13 -5z m-4274 -41 c-7 -2 -21 -2 -30
0 -10 3 -4 5 12 5 17 0 24 -2 18 -5z m3956 -60 c51 -21 30 -27 -46 -12 -37 7
-71 13 -75 14 -3 0 -9 3 -13 7 -13 13 99 5 134 -9z m-3739 -14 c0 -6 -4 -7
-10 -4 -5 3 -10 11 -10 16 0 6 5 7 10 4 6 -3 10 -11 10 -16z m5330 -39 c-20
-13 -40 -13 -40 0 0 6 12 10 28 10 21 0 24 -2 12 -10z m-1245 -10 c3 -5 -1
-10 -9 -10 -9 0 -16 5 -16 10 0 6 4 10 9 10 6 0 13 -4 16 -10z m1353 3 c-10
-2 -26 -2 -35 0 -10 3 -2 5 17 5 19 0 27 -2 18 -5z m322 -13 l65 -7 -75 0
c-41 -1 -102 3 -135 7 l-60 7 70 0 c39 1 99 -3 135 -7z m139 -11 c-18 -11 -46
-12 -53 -1 -3 4 11 9 31 9 25 1 32 -2 22 -8z m-2294 -130 c4 -6 4 -13 0 -17
-3 -3 -9 -1 -13 5 -4 6 -18 13 -32 16 -22 4 -21 4 7 6 17 0 35 -4 38 -10z m50
-9 c3 -5 -3 -10 -15 -10 -12 0 -18 5 -15 10 3 6 10 10 15 10 5 0 12 -4 15 -10z
m-418 -17 c8 -24 -151 -33 -160 -8 -5 11 8 15 66 17 88 5 90 4 94 -9z m-332
-45 c7 -7 -3 -8 -30 -3 -59 10 -80 26 -25 19 25 -4 50 -11 55 -16z m-90 -17
c-8 -14 29 -23 60 -15 18 4 30 2 36 -7 7 -12 9 -11 9 1 0 13 1 13 11 0 8 -11
12 -12 16 -2 2 6 9 12 14 12 6 0 6 -7 0 -19 -7 -13 -26 -20 -63 -24 -35 -4
-58 -13 -69 -26 -24 -29 -93 -44 -166 -36 -35 4 -63 11 -63 16 0 5 -7 9 -15 9
-8 0 -15 5 -15 10 0 6 17 10 38 10 35 1 36 2 18 15 -19 14 -18 15 11 15 18 0
39 8 48 17 12 11 33 17 66 16 27 0 46 3 43 8 -3 5 2 9 11 9 9 0 14 -4 10 -9z
m620 -51 c14 0 25 5 25 10 0 12 70 13 89 1 8 -5 11 -16 8 -25 -4 -11 -1 -16
11 -17 22 -1 -31 -17 -83 -25 -22 -3 -42 -7 -46 -9 -3 -2 -38 4 -78 13 -55 14
-70 21 -59 29 7 6 21 9 30 8 21 -4 33 11 18 20 -25 15 -7 23 25 9 19 -7 46
-14 60 -14z m372 -36 c-3 -3 -12 -4 -19 -1 -8 3 -5 6 6 6 11 1 17 -2 13 -5z
m-606 -28 c13 3 44 -2 69 -10 l45 -16 -62 6 c-45 3 -63 2 -63 -7 0 -8 -4 -8
-15 1 -8 7 -15 9 -15 5 0 -4 -7 -2 -15 5 -23 19 -18 31 8 21 13 -5 34 -7 48
-5z m134 -26 c3 -5 1 -10 -4 -10 -6 0 -11 5 -11 10 0 6 2 10 4 10 3 0 8 -4 11
-10z m-68 -26 c-3 -3 -12 -4 -19 -1 -8 3 -5 6 6 6 11 1 17 -2 13 -5z m-417
-123 c-1 -13 -3 -13 -15 3 -19 26 -19 42 0 26 8 -7 15 -20 15 -29z m120 -31
c0 -5 -5 -10 -11 -10 -5 0 -7 5 -4 10 3 6 8 10 11 10 2 0 4 -4 4 -10z m8314
-57 c-17 -12 -59 -11 -72 2 -4 4 -2 6 3 2 6 -3 17 -2 24 3 8 4 24 7 37 6 21
-1 22 -3 8 -13z m801 -111 c-3 -3 -11 0 -18 7 -9 10 -8 11 6 5 10 -3 15 -9 12
-12z m-9500 -112 c-4 -6 8 -10 29 -10 20 0 36 -4 36 -10 0 -6 -26 -10 -59 -10
-33 0 -63 5 -66 10 -4 6 5 10 19 10 14 0 26 5 26 10 0 6 5 10 11 10 5 0 7 -4
4 -10z m8864 4 c17 -4 31 -11 31 -15 0 -10 -45 -2 -70 12 -18 10 -3 11 39 3z
m821 -14 c0 -4 9 -10 21 -13 12 -3 18 -10 15 -15 -8 -13 -46 -3 -46 12 0 7 -3
6 -9 -2 -6 -10 -10 -10 -20 2 -7 8 -10 19 -7 25 7 10 46 3 46 -9z m-9478 -2
c15 -5 25 -14 22 -19 -2 -5 8 -11 23 -15 15 -3 43 -13 61 -22 30 -16 31 -18
12 -26 -11 -5 -20 -15 -20 -23 0 -16 -17 -17 -23 0 -4 9 -8 9 -16 -3 -13 -19
-3 -32 20 -25 15 5 17 3 12 -11 -4 -12 -3 -15 5 -10 7 4 12 2 12 -3 0 -6 5
-11 11 -11 6 0 21 -8 33 -18 19 -14 21 -20 10 -30 -19 -17 -27 -15 -19 6 5 13
4 14 -6 5 -10 -10 -9 -15 0 -27 13 -15 74 -32 97 -28 17 3 36 -55 21 -63 -7
-3 -1 -3 12 -1 13 3 30 -2 38 -10 11 -10 27 -13 51 -9 41 6 52 14 56 41 4 25
57 31 76 10 8 -11 9 -16 1 -16 -6 0 -11 -8 -11 -17 0 -14 4 -13 24 6 14 13 29
20 34 17 6 -3 27 -8 48 -11 22 -3 50 -8 64 -11 14 -3 44 -7 68 -9 23 -1 48 -8
55 -13 9 -8 20 -7 39 3 25 12 30 11 70 -19 63 -47 101 -57 194 -49 56 4 83 2
88 -6 4 -6 20 -11 35 -11 15 0 36 -9 46 -20 10 -11 26 -20 35 -20 9 0 22 -12
29 -26 9 -21 9 -31 -3 -49 -14 -21 -13 -22 12 -23 28 -1 86 -20 64 -21 -8 -1
-10 -9 -6 -26 8 -31 -14 -41 -53 -26 -18 7 -21 10 -8 8 11 -1 26 2 34 7 10 6
12 5 7 -2 -4 -7 -2 -12 3 -12 14 0 14 16 1 41 -11 20 -12 20 -53 -17 -7 -6
-19 -13 -27 -17 -12 -4 -11 -6 3 -6 15 -1 16 -5 7 -21 -8 -15 -8 -20 1 -20 23
0 -1 -13 -28 -16 -16 -2 -33 3 -39 11 -9 12 -14 12 -37 0 -22 -11 -29 -11 -44
1 -26 19 -50 17 -56 -6 -5 -19 -5 -19 -46 1 -23 11 -41 24 -41 29 0 13 7 13
30 0 13 -7 27 -5 50 6 17 9 44 14 60 12 24 -4 27 -2 19 9 -9 10 -7 14 7 19 33
10 69 32 69 43 0 5 3 13 8 17 11 12 8 21 -10 28 -9 4 -20 2 -23 -5 -5 -7 -14
-3 -29 12 -12 13 -44 29 -71 36 -41 10 -55 10 -85 -2 -39 -17 -45 -24 -15 -22
11 1 20 5 20 9 0 4 11 8 24 8 19 0 25 -7 30 -32 12 -58 11 -71 -2 -75 -8 -3
-10 1 -5 12 5 14 3 16 -13 7 -24 -12 -84 -4 -102 14 -20 21 -38 17 -19 -4 26
-28 21 -31 -29 -16 -26 7 -51 11 -57 7 -6 -3 -7 -1 -3 6 5 7 -1 20 -15 32 -18
15 -20 22 -10 32 10 9 16 8 29 -9 9 -12 27 -25 40 -29 18 -5 22 -2 22 15 0 17
-5 21 -20 17 -11 -3 -23 -1 -26 4 -3 5 2 9 10 9 9 0 16 3 16 8 0 10 -88 49
-129 56 -28 5 -32 4 -22 -8 10 -11 6 -17 -20 -30 -18 -9 -38 -16 -46 -16 -20
0 -15 -17 7 -23 26 -7 26 -27 -1 -27 -15 0 -19 -5 -15 -15 3 -8 2 -15 -2 -15
-15 0 -52 32 -47 40 6 10 -19 20 -51 20 -14 0 -23 5 -21 12 1 8 -17 16 -48 21
-75 12 -135 15 -130 7 3 -5 -1 -10 -9 -13 -17 -7 -56 2 -56 13 0 4 -16 11 -35
14 -19 4 -35 12 -36 19 0 8 -2 8 -6 -1 -3 -9 -10 -7 -23 8 -13 15 -25 20 -39
15 -10 -3 -22 -2 -25 3 -3 5 12 8 33 7 34 -2 38 0 34 19 -4 18 -3 19 9 5 14
-17 52 -34 43 -20 -3 5 1 11 7 14 9 3 6 8 -7 13 -11 4 -29 17 -41 30 -24 25
-79 40 -89 24 -3 -5 -11 -8 -16 -5 -5 4 -9 -1 -9 -9 0 -10 -9 -16 -22 -16 -20
1 -21 2 -8 13 9 7 17 23 17 36 1 13 7 27 13 31 8 5 6 12 -5 24 -9 9 -20 15
-23 13 -4 -2 -19 -9 -34 -17 -26 -12 -32 -11 -85 25 -32 22 -59 40 -61 41 -1
0 0 9 4 18 4 11 10 13 18 7 7 -6 20 -4 36 4 23 13 23 14 5 16 -11 1 -23 1 -27
0 -5 0 -8 10 -8 24 0 16 -4 23 -13 19 -8 -3 -20 3 -28 12 -12 15 -12 16 7 10
14 -4 26 -1 35 10 7 9 24 20 37 25 26 10 23 24 -9 32 -16 4 -19 2 -15 -10 5
-12 1 -14 -16 -9 -13 3 -29 6 -35 6 -7 0 -13 6 -13 13 0 17 83 21 122 5z
m9568 -28 c0 -5 -9 -10 -20 -10 -11 0 -20 5 -20 10 0 6 9 10 20 10 11 0 20 -4
20 -10z m-9702 -53 c8 -10 5 -13 -13 -15 -18 -1 -23 2 -19 13 7 18 18 19 32 2z
m9352 3 c0 -12 -67 -12 -95 0 -14 6 -4 9 38 9 32 1 57 -3 57 -9z m-9146 -195
c17 -13 16 -14 -10 -10 -16 2 -30 4 -32 4 -6 2 9 21 16 21 4 0 15 -7 26 -15z
m2787 -28 c39 3 79 2 92 -4 12 -6 45 -20 72 -32 l50 -22 -29 25 c-16 14 -24
26 -17 26 7 0 9 5 5 13 -5 8 -3 8 9 -2 9 -7 14 -17 11 -22 -3 -5 0 -8 8 -7 18
4 24 -52 6 -63 -7 -5 -28 -6 -47 -2 -19 3 -43 6 -53 7 -10 1 -31 13 -47 28
-23 23 -35 27 -60 22 -33 -7 -82 17 -80 39 0 9 2 9 5 0 4 -8 26 -10 75 -6z
m-2491 -15 c0 -4 -9 -8 -20 -9 -22 -2 -27 13 -7 20 14 5 27 -1 27 -11z m30 -2
c0 -5 -4 -10 -10 -10 -5 0 -10 5 -10 10 0 6 5 10 10 10 6 0 10 -4 10 -10z
m-344 -40 c-1 -8 -5 -19 -11 -23 -6 -5 -1 -6 10 -4 11 2 19 10 17 18 -1 9 3 8
12 -5 8 -10 20 -15 27 -11 7 5 10 3 7 -5 -2 -8 -25 -14 -62 -15 -48 -1 -55 1
-42 10 14 10 8 14 -36 19 -48 7 -51 9 -31 19 34 18 110 16 109 -3z m-356 -5
c0 -8 -4 -15 -10 -15 -5 0 -10 7 -10 15 0 8 5 15 10 15 6 0 10 -7 10 -15z m30
-16 c0 -5 -4 -9 -10 -9 -5 0 -10 7 -10 16 0 8 5 12 10 9 6 -3 10 -10 10 -16z
m217 -35 c-3 -3 -12 -4 -19 -1 -8 3 -5 6 6 6 11 1 17 -2 13 -5z m6676 -16 c-2
-5 -10 -8 -18 -8 -8 0 -16 3 -18 8 -3 4 5 7 18 7 13 0 21 -3 18 -7z m-6433 -8
c12 -8 9 -10 -13 -10 -16 0 -26 4 -22 10 8 12 16 12 35 0z m6194 -69 c3 -5 -3
-11 -13 -14 -14 -3 -18 -1 -14 9 6 16 19 18 27 5z m-4909 -31 c3 -11 11 -20
16 -20 5 0 9 -13 9 -30 0 -16 4 -30 9 -30 20 0 -3 -38 -25 -43 -27 -5 -44 11
-24 23 9 5 9 13 2 27 -8 14 -8 23 0 31 17 17 1 27 -18 11 -16 -13 -16 -12 -5
9 7 14 8 22 1 22 -5 0 -10 5 -10 10 0 19 39 10 45 -10z m157 -37 c9 -8 22 -12
27 -8 6 3 16 3 22 -1 13 -8 -80 -46 -96 -40 -5 3 -2 5 8 5 9 1 17 6 17 12 0 8
-11 9 -31 5 -26 -5 -29 -4 -20 8 6 7 8 21 5 31 -6 16 -3 17 22 11 16 -4 37
-14 46 -23z m-485 1 c-3 -3 -12 -4 -19 -1 -8 3 -5 6 6 6 11 1 17 -2 13 -5z
m268 -4 c3 -5 1 -10 -4 -10 -6 0 -11 5 -11 10 0 6 2 10 4 10 3 0 8 -4 11 -10z
m4200 1 c-3 -5 -1 -12 5 -16 5 -3 10 1 10 9 0 29 38 18 54 -16 9 -17 16 -32
16 -33 0 0 -17 -2 -37 -2 -26 -1 -44 5 -56 18 -10 10 -23 19 -29 19 -7 0 -6 5
2 15 13 16 45 21 35 6z m1075 -1 c0 -5 -4 -10 -10 -10 -5 0 -10 5 -10 10 0 6
5 10 10 10 6 0 10 -4 10 -10z m-1140 -35 c0 -8 -4 -15 -10 -15 -5 0 -10 7 -10
15 0 8 5 15 10 15 6 0 10 -7 10 -15z m-4500 -25 c0 -5 -2 -10 -4 -10 -3 0 -8
5 -11 10 -3 6 -1 10 4 10 6 0 11 -4 11 -10z m640 -16 c0 -2 -7 -4 -15 -4 -8 0
-15 4 -15 10 0 5 7 7 15 4 8 -4 15 -8 15 -10z m-370 -4 c0 -5 -4 -10 -10 -10
-5 0 -10 5 -10 10 0 6 5 10 10 10 6 0 10 -4 10 -10z m4240 -4 c0 -3 -4 -8 -10
-11 -5 -3 -10 -1 -10 4 0 6 5 11 10 11 6 0 10 -2 10 -4z m17 -18 c-3 -8 -6 -5
-6 6 -1 11 2 17 5 13 3 -3 4 -12 1 -19z m-3818 -46 c19 -21 42 -36 51 -34 9 1
23 -4 30 -13 12 -15 4 -21 -24 -16 -4 1 -13 -3 -20 -8 -14 -12 -51 13 -41 28
3 6 0 11 -9 11 -8 0 -16 4 -18 8 -1 5 -20 20 -41 34 l-39 26 38 0 c31 0 45 -7
73 -36z m-914 8 c3 -5 -1 -10 -9 -10 -8 0 -18 5 -21 10 -3 6 1 10 9 10 8 0 18
-4 21 -10z m4520 -20 c3 -5 1 -10 -4 -10 -6 0 -11 5 -11 10 0 6 2 10 4 10 3 0
8 -4 11 -10z m-4368 -16 c-3 -3 -12 -4 -19 -1 -8 3 -5 6 6 6 11 1 17 -2 13 -5z
m8 -24 c3 -5 -3 -10 -14 -10 -12 0 -21 5 -21 10 0 6 6 10 14 10 8 0 18 -4 21
-10z m605 0 c13 -8 13 -11 1 -19 -20 -13 0 -65 26 -69 12 -2 24 -9 26 -16 8
-21 -9 -38 -34 -34 -35 5 -74 87 -57 123 12 28 16 29 38 15z m425 -10 c3 -5 4
-14 0 -20 -8 -13 -35 -1 -35 16 0 16 26 19 35 4z m2784 -14 c9 -11 7 -15 -7
-18 -12 -4 -18 1 -19 13 -2 22 10 25 26 5z m-3519 -14 c0 -10 6 -24 13 -31 10
-10 9 -11 -3 -6 -8 3 -23 17 -33 30 -17 24 -17 25 3 25 13 0 20 -7 20 -18z
m520 14 c0 -3 -4 -8 -10 -11 -5 -3 -10 -1 -10 4 0 6 5 11 10 11 6 0 10 -2 10
-4z m247 -18 c-3 -8 -6 -5 -6 6 -1 11 2 17 5 13 3 -3 4 -12 1 -19z m-181 -10
c35 -28 54 -50 48 -60 -5 -8 50 -64 69 -71 7 -2 9 -8 5 -12 -4 -4 -23 2 -43
14 -20 11 -44 21 -53 21 -10 0 -22 13 -29 31 -7 17 -21 33 -32 36 -12 3 -21 9
-21 14 0 5 -7 5 -17 2 -11 -4 -14 -3 -9 5 4 8 0 12 -11 13 -10 0 -3 6 17 14
46 18 43 18 76 -7z m-413 -24 c-4 -10 1 -17 15 -21 23 -6 58 -51 47 -61 -3 -4
-9 -2 -13 4 -4 6 -19 14 -34 18 -16 4 -34 18 -43 35 -14 28 -14 30 8 34 12 2
23 5 24 6 1 0 0 -6 -4 -15z m2373 -31 c-11 -11 -48 -14 -41 -3 3 5 16 10 27
10 12 0 18 -3 14 -7z m-181 -24 c11 -17 -13 -17 -30 1 -16 18 -16 18 4 13 12
-3 24 -9 26 -14z m65 -14 c0 -8 10 -16 23 -18 21 -4 21 -4 1 -6 -13 0 -28 9
-38 24 -14 21 -14 24 -1 19 8 -4 15 -12 15 -19z m30 5 c0 -5 -4 -10 -10 -10
-5 0 -10 5 -10 10 0 6 5 10 10 10 6 0 10 -4 10 -10z m80 -5 c0 -9 -6 -12 -15
-9 -8 4 -15 10 -15 15 0 5 7 9 15 9 8 0 15 -7 15 -15z m-130 -20 c10 -12 10
-15 -4 -15 -14 0 -21 -11 -17 -32 0 -5 -3 -8 -7 -8 -4 0 -8 16 -9 35 -1 38 15
46 37 20z m-980 -11 c0 -11 8 -15 28 -14 44 3 62 1 62 -9 0 -9 -72 -7 -108 4
-18 6 -20 10 -11 21 15 19 29 18 29 -2z m-823 -15 c17 -17 5 -38 -18 -32 -21
6 -21 6 -13 27 7 19 16 20 31 5z m-169 -36 c57 -57 167 -123 205 -123 14 0 36
-21 52 -49 9 -15 -6 -9 -35 14 -25 20 -67 26 -79 11 -14 -17 -61 -9 -61 11 0
11 4 11 21 3 32 -18 34 -4 2 17 -15 10 -39 28 -53 40 -34 31 -55 31 -39 1 7
-13 17 -26 23 -30 6 -4 7 -10 3 -15 -4 -4 -16 -2 -25 5 -9 7 -24 15 -32 19 -8
4 -20 13 -26 21 -6 8 -23 16 -37 17 -23 3 -27 -1 -27 -21 0 -24 -30 -36 -30
-11 0 6 -9 23 -20 37 -17 22 -27 60 -16 60 3 0 17 -5 33 -11 43 -17 73 -19 73
-4 0 27 43 32 68 8z m-218 -3 c0 -5 -4 -10 -10 -10 -5 0 -10 5 -10 10 0 6 5
10 10 10 6 0 10 -4 10 -10z m362 -26 c4 -3 8 -12 8 -21 0 -12 -3 -13 -15 -3
-8 6 -19 9 -25 5 -5 -3 -23 4 -38 16 l-27 22 44 -7 c24 -4 48 -9 53 -12z m201
-49 c9 -19 15 -35 12 -35 -8 0 -55 51 -55 60 0 23 28 7 43 -25z m42 24 c11
-17 -1 -21 -15 -4 -8 9 -8 15 -2 15 6 0 14 -5 17 -11z m320 -9 c19 -8 19 -9
-2 -9 -12 -1 -25 4 -28 9 -7 12 2 12 30 0z m-945 -25 c19 -23 8 -25 -14 -4
-11 11 -15 19 -9 19 6 0 16 -7 23 -15z m1997 -19 c18 -11 33 -27 33 -33 0 -18
-19 -16 -26 2 -4 8 -26 24 -50 34 -24 11 -44 22 -44 26 0 10 55 -7 87 -29z
m-1453 -13 c9 -24 2 -25 -22 -5 -12 11 -19 22 -16 25 9 9 32 -3 38 -20z m-309
-7 c14 -14 21 -28 15 -31 -6 -3 -10 -1 -10 6 0 7 -3 10 -6 6 -10 -10 -61 13
-61 28 0 23 35 18 62 -9z m1720 -13 c16 -13 17 -15 3 -10 -11 4 -18 1 -18 -5
0 -7 -7 -3 -15 8 -12 15 -16 16 -24 5 -5 -7 -14 -10 -20 -7 -6 4 -11 3 -11 -1
0 -14 -68 -9 -82 5 -11 11 -3 13 45 9 32 -2 60 0 63 4 8 14 37 10 59 -8z m-40
-23 c-3 -5 -14 -10 -23 -11 -26 -1 23 -18 65 -23 42 -6 47 -10 39 -32 -4 -11
-13 -14 -31 -10 -18 5 -25 2 -25 -8 0 -10 13 -16 42 -18 54 -4 65 -28 13 -28
-34 0 -36 -2 -24 -16 12 -15 10 -16 -24 -12 -42 5 -49 -8 -12 -22 14 -5 25
-15 24 -22 0 -10 -2 -10 -6 0 -7 19 -22 14 -20 -7 0 -11 4 -19 7 -19 3 1 13
-2 24 -7 11 -5 26 -3 37 3 23 15 52 16 44 2 -4 -6 5 -10 20 -10 17 0 29 -7 35
-22 5 -13 9 -17 9 -10 1 16 30 15 65 -3 16 -9 55 -18 85 -22 31 -3 65 -7 76
-8 11 -2 28 -4 38 -4 9 -1 17 -5 17 -11 0 -16 -235 4 -246 21 -3 5 -10 9 -15
9 -6 0 -7 -4 -4 -10 8 -13 -40 -24 -73 -16 -31 8 -67 15 -100 19 -13 2 -28 10
-33 18 -8 12 -10 12 -20 -1 -6 -9 -12 -11 -15 -4 -2 6 -18 8 -34 6 -21 -3 -30
0 -30 9 0 11 -2 11 -10 -1 -7 -12 -12 -12 -22 -2 -6 6 -25 12 -41 12 -24 0
-27 3 -18 13 6 8 7 17 3 22 -4 4 4 4 18 0 14 -4 22 -4 18 0 -4 4 -18 9 -30 11
-13 1 -39 8 -58 13 -19 6 -50 11 -67 11 -21 0 -33 5 -33 13 0 11 14 12 66 5
37 -4 73 -13 80 -19 11 -9 19 -8 37 7 12 10 24 20 27 22 8 5 -52 52 -61 47 -4
-3 -11 0 -15 6 -7 12 20 8 60 -7 12 -4 15 -2 11 9 -5 12 2 14 35 11 34 -3 41
-1 36 11 -3 8 -1 15 4 15 6 0 10 -5 10 -12 0 -6 3 -8 6 -5 4 3 15 2 25 -4 13
-6 19 -6 19 1 0 5 -5 10 -11 10 -6 0 -17 7 -26 15 -9 10 -20 12 -27 7 -17 -13
-88 -4 -145 19 l-25 10 25 13 c16 8 40 9 71 5 43 -7 60 -4 136 20 2 1 0 -3 -3
-9z m-255 -23 l25 -11 -29 -4 c-32 -4 -79 16 -70 30 6 9 28 4 74 -15z m287 7
c-3 -3 -12 -4 -19 -1 -8 3 -5 6 6 6 11 1 17 -2 13 -5z m-1067 -14 c0 -5 -4
-10 -10 -10 -5 0 -10 5 -10 10 0 6 5 10 10 10 6 0 10 -4 10 -10z m1156 2 c-3
-5 6 -15 19 -22 24 -13 34 -30 16 -30 -9 0 -61 46 -61 55 0 3 7 5 16 5 8 0 13
-4 10 -8z m-712 -20 c3 -5 30 -7 60 -6 31 2 58 -1 61 -7 4 -5 0 -9 -8 -9 -8 0
-19 -6 -25 -13 -8 -10 -3 -16 21 -26 18 -7 48 -19 68 -28 28 -12 41 -12 58 -4
14 8 21 8 21 1 0 -5 -4 -10 -9 -10 -5 0 -7 -9 -4 -20 3 -11 0 -20 -6 -20 -6 0
-11 4 -11 10 0 15 -68 23 -110 12 -29 -7 -42 -7 -48 2 -12 20 -56 34 -101 32
-23 -1 -45 2 -48 7 -3 4 -11 6 -19 3 -8 -3 -14 -1 -14 3 0 13 30 22 43 14 20
-12 96 -5 119 11 16 11 18 16 8 18 -30 3 -36 4 -65 21 -19 10 -24 16 -13 17 9
0 19 -4 22 -8z m241 -22 c3 -5 1 -10 -4 -10 -6 0 -11 5 -11 10 0 6 2 10 4 10
3 0 8 -4 11 -10z m-430 -20 c15 -6 23 -15 19 -21 -3 -6 0 -15 7 -20 11 -6 10
-9 -5 -15 -22 -8 -52 9 -48 26 2 8 -5 11 -18 7 -21 -5 -21 -5 -4 14 20 22 16
22 49 9z m532 -12 c12 -3 24 -1 27 6 2 6 5 3 5 -6 1 -10 12 -20 26 -24 14 -3
22 -10 19 -15 -3 -5 -13 -5 -24 1 -25 13 -33 13 -25 -2 4 -7 0 -5 -9 6 -14 17
-16 17 -31 2 -9 -9 -21 -14 -26 -11 -12 8 -11 25 2 25 5 0 7 -5 3 -12 -4 -7
-3 -8 4 -4 9 5 9 13 2 26 -11 21 -13 40 -2 24 4 -6 17 -13 29 -16z m-467 2 c0
-5 -4 -10 -10 -10 -5 0 -10 5 -10 10 0 6 5 10 10 10 6 0 10 -4 10 -10z m-215
-22 c13 -11 22 -25 19 -29 -7 -12 -34 1 -34 17 0 8 -7 14 -15 14 -8 0 -15 5
-15 10 0 16 18 12 45 -12z m75 1 c0 -5 -7 -9 -15 -9 -9 0 -12 6 -9 15 6 15 24
11 24 -6z m475 1 c3 -5 1 -10 -4 -10 -6 0 -11 5 -11 10 0 6 2 10 4 10 3 0 8
-4 11 -10z m-430 -30 c3 -5 -3 -10 -15 -10 -12 0 -18 5 -15 10 3 6 10 10 15
10 5 0 12 -4 15 -10z m1182 -126 c-3 -3 -12 -4 -19 -1 -8 3 -5 6 6 6 11 1 17
-2 13 -5z m257 -58 c14 -21 -1 -33 -23 -19 -10 6 -35 15 -55 18 -50 10 -37 21
21 19 31 -1 51 -8 57 -18z m163 18 c-3 -3 -12 -4 -19 -1 -8 3 -5 6 6 6 11 1
17 -2 13 -5z m243 -13 c0 -17 -25 -30 -40 -21 -8 6 -31 10 -50 11 -84 3 -82
17 3 18 48 1 87 -3 87 -8z m-318 -8 c-15 -3 -22 -10 -18 -19 6 -16 -19 -20
-29 -5 -7 12 24 31 50 29 16 -1 16 -2 -3 -5z m501 -29 c29 -9 20 -27 -10 -20
-16 3 -52 9 -80 12 -29 4 -53 11 -53 16 0 9 102 3 143 -8z m1371 -3 c32 -13 2
-21 -49 -14 -30 4 -42 9 -33 14 16 10 56 10 82 0z m-1235 -49 c-8 -13 -21 -16
-55 -13 -73 5 -50 26 34 30 28 1 31 -1 21 -17z m1230 -10 c-30 -5 -57 7 -40
17 7 5 24 3 37 -3 23 -10 23 -11 3 -14z m-1099 14 c0 -11 -19 -15 -25 -6 -3 5
1 10 9 10 9 0 16 -2 16 -4z m968 -6 c24 -1 25 -2 9 -11 -21 -12 -67 -4 -67 12
0 6 7 8 16 5 9 -3 28 -6 42 -6z m62 0 c0 -5 -2 -10 -4 -10 -3 0 -8 5 -11 10
-3 6 -1 10 4 10 6 0 11 -4 11 -10z m-385 -20 c3 -5 2 -10 -4 -10 -5 0 -13 5
-16 10 -3 6 -2 10 4 10 5 0 13 -4 16 -10z m-488 -16 c-3 -3 -12 -4 -19 -1 -8
3 -5 6 6 6 11 1 17 -2 13 -5z m673 -11 c2 -2 -14 -2 -37 -1 -23 2 -39 6 -37
10 5 7 64 0 74 -9z m-293 -6 c6 -4 13 -2 15 4 3 9 9 9 23 1 16 -9 167 -32 222
-35 7 0 14 -6 17 -14 4 -9 26 -13 72 -13 37 0 65 -3 62 -6 -9 -9 -285 -31
-448 -35 -37 -1 -103 20 -122 39 -15 15 -32 16 -23 2 4 -6 -5 -10 -20 -10 -18
0 -29 6 -32 20 -4 14 -14 20 -37 21 -29 2 -29 2 -4 6 15 2 37 -1 48 -7 20 -11
21 -10 11 9 -10 19 -8 20 36 23 84 5 168 3 180 -5z m953 -79 c0 -19 -2 -20
-10 -8 -13 19 -13 30 0 30 6 0 10 -10 10 -22z m-114 -9 c0 -13 -10 -17 -40
-17 -47 -1 -86 16 -65 28 7 5 33 8 59 7 35 -1 46 -6 46 -18z m-3326 1 c0 -5
-4 -10 -10 -10 -5 0 -10 5 -10 10 0 6 5 10 10 10 6 0 10 -4 10 -10z m538 0 c7
0 10 -4 7 -10 -7 -11 -105 -11 -105 1 0 10 39 18 65 13 11 -2 26 -4 33 -4z
m2842 0 c0 -5 -7 -10 -15 -10 -8 0 -15 5 -15 10 0 6 7 10 15 10 8 0 15 -4 15
-10z m-2970 -50 c0 -5 -5 -10 -11 -10 -5 0 -7 5 -4 10 3 6 8 10 11 10 2 0 4
-4 4 -10z m-450 -77 c13 -13 12 -14 -9 -8 -16 5 -21 4 -17 -4 4 -6 2 -11 -4
-11 -21 0 -50 21 -50 36 0 12 7 14 33 9 17 -4 39 -14 47 -22z m3080 7 c0 -5
-2 -10 -4 -10 -3 0 -8 5 -11 10 -3 6 -1 10 4 10 6 0 11 -4 11 -10z m390 0 c0
-5 -10 -10 -22 -10 -19 0 -20 2 -8 10 19 13 30 13 30 0z m-53 -7 c-4 -3 -1
-13 6 -21 11 -13 9 -14 -10 -1 -27 16 -30 29 -6 29 9 0 13 -3 10 -7z m-437 -7
c0 -9 -40 -13 -46 -5 -3 5 6 9 20 9 14 0 26 -2 26 -4z m-190 -16 c0 -5 -4 -10
-10 -10 -5 0 -10 5 -10 10 0 6 5 10 10 10 6 0 10 -4 10 -10z m60 -22 c0 -13
-23 -5 -28 10 -2 7 2 10 12 6 9 -3 16 -11 16 -16z m715 2 c13 -6 15 -9 5 -9
-8 0 -22 4 -30 9 -18 12 -2 12 25 0z m-425 -11 c0 -5 -6 -9 -14 -9 -8 0 -16
-5 -18 -11 -5 -15 -48 -2 -48 14 0 7 16 13 40 13 22 1 40 -2 40 -7z m292 -42
c7 -2 10 -8 6 -12 -4 -4 -20 1 -37 11 -19 11 -26 21 -19 25 6 4 17 1 24 -6 8
-7 19 -15 26 -18z m-412 19 c0 -3 -4 -8 -10 -11 -5 -3 -10 -1 -10 4 0 6 5 11
10 11 6 0 10 -2 10 -4z m120 -6 c0 -5 -4 -10 -10 -10 -5 0 -10 5 -10 10 0 6 5
10 10 10 6 0 10 -4 10 -10z m500 -5 c0 -9 -6 -12 -15 -9 -8 4 -15 10 -15 15 0
5 7 9 15 9 8 0 15 -7 15 -15z m2520 -15 c0 -5 -5 -10 -11 -10 -5 0 -7 5 -4 10
3 6 8 10 11 10 2 0 4 -4 4 -10z m-3208 -9 c-8 -4 -13 -12 -12 -17 1 -5 -4 -10
-10 -12 -9 -3 -9 1 -1 17 7 11 17 21 24 21 8 0 8 -3 -1 -9z m211 -6 c21 -16
20 -16 -22 -10 -25 4 -66 8 -93 9 -76 3 -66 13 17 15 56 1 81 -2 98 -14z m327
5 c0 -5 -4 -10 -10 -10 -5 0 -10 5 -10 10 0 6 5 10 10 10 6 0 10 -4 10 -10z
m-459 -35 c0 -5 -9 -11 -21 -13 -20 -3 -27 8 -13 22 10 9 34 3 34 -9z m79 -5
c0 -5 -7 -7 -15 -4 -8 4 -15 8 -15 10 0 2 7 4 15 4 8 0 15 -4 15 -10z m677 -5
c0 -8 -9 -15 -19 -15 -20 0 -24 16 -5 23 20 9 24 8 24 -8z m-1651 -32 c-4 -4
-11 -1 -16 7 -16 25 -11 35 7 17 9 -9 13 -20 9 -24z m749 17 c3 -5 -1 -10 -10
-10 -9 0 -13 5 -10 10 3 6 8 10 10 10 2 0 7 -4 10 -10z m665 1 c0 -6 -4 -13
-10 -16 -5 -3 -10 0 -10 7 0 9 -3 9 -10 -2 -5 -8 -10 -10 -10 -4 0 6 3 14 7
17 10 10 33 8 33 -2z m60 0 c0 -5 -7 -12 -16 -15 -14 -5 -15 -4 -4 9 14 17 20
19 20 6z m96 -10 c-7 -10 -44 -7 -55 5 -3 4 1 5 10 2 9 -4 22 -2 30 2 16 10
24 6 15 -9z m-471 -21 c-3 -5 -10 -10 -16 -10 -5 0 -9 5 -9 10 0 6 7 10 16 10
8 0 12 -4 9 -10z m795 6 c0 -3 -4 -8 -10 -11 -5 -3 -10 -1 -10 4 0 6 5 11 10
11 6 0 10 -2 10 -4z m230 0 c0 -3 -4 -8 -10 -11 -5 -3 -10 -1 -10 4 0 6 5 11
10 11 6 0 10 -2 10 -4z m-1650 -71 c0 -9 -48 -24 -97 -31 -32 -4 -45 -3 -38 4
8 8 53 19 128 31 4 0 7 -1 7 -4z m953 -45 c5 -4 4 -11 -2 -15 -6 -3 -14 1 -17
9 -7 17 -54 22 -54 6 0 -5 -4 -10 -10 -10 -8 0 -8 28 -1 47 2 4 76 -29 84 -37z
m-98 20 c3 -5 1 -10 -4 -10 -6 0 -11 5 -11 10 0 6 2 10 4 10 3 0 8 -4 11 -10z
m-1025 -19 c-26 -14 -70 -22 -70 -12 0 5 15 12 33 14 17 2 37 4 42 5 6 1 3 -2
-5 -7z m-90 -21 c0 -5 -7 -10 -16 -10 -8 0 -12 5 -9 10 3 6 10 10 16 10 5 0 9
-4 9 -10z m1170 0 c0 -5 -4 -10 -10 -10 -5 0 -10 5 -10 10 0 6 5 10 10 10 6 0
10 -4 10 -10z m-7207 -26 c43 -8 44 -12 16 -48 -25 -32 -35 -33 -50 -4 -10 18
-9 20 7 14 17 -7 17 -6 -1 14 -10 11 -26 20 -37 20 -10 0 -18 5 -18 11 0 7 9
9 23 5 12 -3 39 -9 60 -12z m5970 -1 c-7 -2 -21 -2 -30 0 -10 3 -4 5 12 5 17
0 24 -2 18 -5z m70 -10 c-7 -2 -19 -2 -25 0 -7 3 -2 5 12 5 14 0 19 -2 13 -5z
m84 -9 c-3 -3 -12 -4 -19 -1 -8 3 -5 6 6 6 11 1 17 -2 13 -5z m-524 -31 c-7
-2 -21 -2 -30 0 -10 3 -4 5 12 5 17 0 24 -2 18 -5z m74 -9 c-3 -3 -12 -4 -19
-1 -8 3 -5 6 6 6 11 1 17 -2 13 -5z m218 -19 c116 -7 132 -9 141 -18 20 -19
-271 6 -291 26 -6 6 1 7 20 3 17 -3 75 -8 130 -11z m-2806 -17 c13 -31 33
-169 26 -176 -11 -11 -21 14 -40 91 -10 43 -22 80 -27 83 -15 10 -8 24 12 24
12 0 24 -10 29 -22z m4671 12 c-8 -5 -19 -10 -25 -10 -5 0 -3 5 5 10 8 5 20
10 25 10 6 0 3 -5 -5 -10z m-2709 -28 c15 -27 15 -30 -7 -51 -19 -18 -24 -20
-24 -8 0 9 5 19 10 22 7 4 7 12 0 25 -24 44 -4 55 21 12z m2439 13 c0 -2 -10
-9 -22 -15 -22 -11 -22 -10 -4 4 21 17 26 19 26 11z m-1202 -31 c34 -4 62 -11
62 -16 0 -5 -8 -7 -17 -4 -10 3 -55 8 -100 12 -46 4 -83 11 -83 17 0 5 15 7
38 4 20 -3 65 -9 100 -13z m-627 -3 c-8 -5 -20 -7 -28 -4 -21 8 -15 13 15 13
20 0 23 -3 13 -9z m140 -1 c16 0 29 -5 29 -11 0 -13 -99 -4 -134 12 -15 7 -7
8 28 4 27 -3 62 -5 77 -5z m609 -8 c0 -4 -9 -8 -20 -9 -11 -1 -18 2 -15 8 7
11 35 12 35 1z m-375 -22 c-3 -5 -12 -7 -20 -3 -21 7 -19 13 6 13 11 0 18 -4
14 -10z m55 0 c0 -5 -9 -10 -20 -10 -11 0 -20 5 -20 10 0 6 9 10 20 10 11 0
20 -4 20 -10z m1840 -32 c0 -6 -7 -5 -15 2 -8 7 -15 17 -15 22 0 6 7 5 15 -2
8 -7 15 -17 15 -22z m-2360 2 c0 -5 -4 -10 -9 -10 -6 0 -13 5 -16 10 -3 6 1
10 9 10 9 0 16 -4 16 -10z m1745 -10 c-10 -11 -21 -17 -24 -14 -3 3 3 12 13
20 28 20 32 17 11 -6z m-1836 1 c10 -7 10 -12 -5 -30 -10 -11 -22 -21 -27 -21
-5 0 -20 -14 -34 -31 -17 -20 -32 -29 -45 -26 -10 3 -16 1 -13 -4 9 -14 -18
-36 -37 -31 -24 6 -23 19 3 27 16 5 18 9 9 15 -9 6 -7 10 8 14 12 4 31 19 42
34 20 24 68 62 80 62 3 0 11 -4 19 -9z m4926 -1 c3 -5 2 -10 -4 -10 -5 0 -13
5 -16 10 -3 6 -2 10 4 10 5 0 13 -4 16 -10z m-4502 -17 c-7 -2 -19 -2 -25 0
-7 3 -2 5 12 5 14 0 19 -2 13 -5z m1204 -9 c-3 -3 -12 -4 -19 -1 -8 3 -5 6 6
6 11 1 17 -2 13 -5z m893 -20 c0 -2 -9 0 -20 6 -11 6 -20 13 -20 16 0 2 9 0
20 -6 11 -6 20 -13 20 -16z m-780 6 c0 -13 -11 -13 -30 0 -12 8 -11 10 8 10
12 0 22 -4 22 -10z m450 0 c0 -5 -2 -10 -4 -10 -3 0 -8 5 -11 10 -3 6 -1 10 4
10 6 0 11 -4 11 -10z m2820 -20 c0 -5 -11 -10 -24 -10 -14 0 -28 5 -31 10 -4
6 7 10 24 10 17 0 31 -4 31 -10z m-3050 -66 c0 -8 -4 -12 -10 -9 -5 3 -10 10
-10 16 0 5 5 9 10 9 6 0 10 -7 10 -16z m790 -15 c0 -10 -12 -11 -34 -3 -9 3
-14 10 -11 14 6 10 45 1 45 -11z m1787 -15 c-3 -3 -12 -4 -19 -1 -8 3 -5 6 6
6 11 1 17 -2 13 -5z m158 -14 c3 -5 1 -10 -4 -10 -6 0 -11 5 -11 10 0 6 2 10
4 10 3 0 8 -4 11 -10z m110 -20 c4 -6 -5 -10 -19 -10 -14 0 -26 5 -26 10 0 6
9 10 19 10 11 0 23 -4 26 -10z m60 0 c3 -5 -1 -10 -10 -10 -9 0 -13 5 -10 10
3 6 8 10 10 10 2 0 7 -4 10 -10z m145 -2 c0 -9 3 -8 10 2 7 12 23 1 83 -55 77
-72 86 -85 64 -85 -23 0 -78 -31 -72 -40 6 -10 -43 -90 -55 -90 -5 0 -11 6
-14 13 -3 6 -3 2 0 -10 6 -28 -19 -42 -78 -44 -57 -2 -131 11 -140 25 -6 8
-10 7 -16 -2 -6 -9 -32 -11 -101 -8 -94 6 -111 10 -111 27 0 6 5 7 10 4 6 -3
10 1 10 9 0 22 46 21 58 -1 8 -14 35 -17 180 -20 l170 -5 -2 26 c0 14 -3 26
-6 26 -3 0 -6 9 -7 20 -1 16 4 20 33 20 23 0 34 4 32 12 -3 7 -22 11 -45 11
-34 0 -43 4 -58 29 -17 29 -12 56 5 28 6 -9 10 -10 10 -3 0 6 9 9 20 6 11 -3
20 -9 20 -14 0 -5 7 -9 15 -9 13 0 13 3 -3 20 -11 12 -27 18 -40 15 -12 -2
-22 0 -22 4 0 5 21 12 46 16 56 8 53 13 -11 18 -27 3 -51 10 -53 16 -2 6 3 9
10 6 9 -4 15 0 15 10 0 8 -6 15 -14 15 -7 0 -13 -4 -13 -9 0 -5 -9 -11 -19
-14 -15 -3 -18 -1 -14 11 5 11 2 13 -8 8 -8 -4 -5 0 5 8 24 19 106 22 106 4z
m-1977 -29 c20 -5 37 -14 37 -19 0 -13 3 -13 -55 10 -54 21 -44 26 18 9z
m1792 1 c3 -5 2 -10 -4 -10 -5 0 -13 5 -16 10 -3 6 -2 10 4 10 5 0 13 -4 16
-10z m-873 -32 c-7 -7 -12 -8 -12 -2 0 14 12 26 19 19 2 -3 -1 -11 -7 -17z
m-667 -38 c7 -12 -12 -12 -40 0 -18 8 -17 9 7 9 15 1 30 -3 33 -9z m810 -32
c6 -6 0 -8 -19 -6 -16 2 -31 9 -34 17 -3 10 2 11 19 6 13 -4 29 -12 34 -17z
m-6835 8 c0 -9 -30 -14 -35 -6 -4 6 3 10 14 10 12 0 21 -2 21 -4z m1377 -18
c-3 -8 -6 -5 -6 6 -1 11 2 17 5 13 3 -3 4 -12 1 -19z m4816 6 c9 -3 15 -9 12
-14 -5 -8 -133 14 -143 25 -8 9 105 -1 131 -11z m-4043 -4 c0 -5 -4 -10 -10
-10 -5 0 -10 5 -10 10 0 6 5 10 10 10 6 0 10 -4 10 -10z m3419 -21 c34 -12 60
-23 57 -26 -4 -4 -80 18 -131 38 -45 18 14 8 74 -12z m1626 1 c4 -6 -12 -10
-39 -10 -25 0 -46 5 -46 10 0 6 18 10 39 10 22 0 43 -4 46 -10z m-761 -8 c2
-4 21 -9 42 -10 20 -2 44 -7 53 -13 11 -7 1 -9 -37 -4 -60 7 -82 14 -82 26 0
11 17 12 24 1z m-3879 -50 c-3 -3 -11 0 -18 7 -9 10 -8 11 6 5 10 -3 15 -9 12
-12z m2230 0 c-3 -3 -11 0 -18 7 -9 10 -8 11 6 5 10 -3 15 -9 12 -12z m1915 8
c0 -5 -25 -10 -56 -10 -30 0 -53 4 -50 8 7 12 106 14 106 2z m-1975 -18 c-3
-3 -11 0 -18 7 -9 10 -8 11 6 5 10 -3 15 -9 12 -12z m2074 12 c49 -10 36 -25
-16 -20 -27 3 -50 5 -53 6 -6 1 23 20 31 20 4 0 21 -3 38 -6z m103 -26 c-7 -7
-12 -8 -12 -2 0 14 12 26 19 19 2 -3 -1 -11 -7 -17z m131 12 c20 0 27 -5 27
-19 0 -11 -4 -22 -9 -25 -13 -8 -42 4 -35 15 3 5 -9 9 -25 9 -22 0 -31 5 -31
16 0 12 6 15 23 10 12 -3 34 -6 50 -6z m157 -34 c0 -11 -19 -15 -25 -6 -3 5 1
10 9 10 9 0 16 -2 16 -4z m100 -17 c0 -6 -12 -8 -27 -5 -16 2 -34 5 -41 5 -7
1 -11 5 -8 9 7 11 76 2 76 -9z m427 15 c-3 -3 -12 -4 -19 -1 -8 3 -5 6 6 6 11
1 17 -2 13 -5z m-837 -25 c0 -6 -12 -8 -27 -5 -16 2 -31 5 -35 5 -5 1 -8 5 -8
9 0 4 16 6 35 4 19 -2 35 -8 35 -13z m-1295 1 c3 -5 2 -10 -4 -10 -5 0 -13 5
-16 10 -3 6 -2 10 4 10 5 0 13 -4 16 -10z m-1015 -20 c0 -5 -2 -10 -4 -10 -3
0 -8 5 -11 10 -3 6 -1 10 4 10 6 0 11 -4 11 -10z m2695 -20 c28 -4 48 -8 45
-9 -41 -18 -103 -21 -114 -6 -6 7 -29 16 -51 18 -32 3 -29 4 15 4 30 1 78 -2
105 -7z m503 -24 c3 -16 -2 -17 -40 -13 -23 3 -45 6 -47 6 -3 1 4 9 15 19 23
23 67 15 72 -12z m-2240 -4 c2 -7 -4 -15 -13 -18 -20 -8 -27 -1 -19 20 7 18
25 17 32 -2z m2110 7 c-2 -6 -7 -10 -11 -10 -4 1 -18 1 -32 1 -39 0 -29 15 11
17 20 1 34 -3 32 -8z m287 -99 c3 -5 1 -10 -4 -10 -6 0 -11 5 -11 10 0 6 2 10
4 10 3 0 8 -4 11 -10z m-6568 -37 c-3 -10 -5 -4 -5 12 0 17 2 24 5 18 2 -7 2
-21 0 -30z m4065 25 c-9 -9 -15 -9 -24 0 -9 9 -7 12 12 12 19 0 21 -3 12 -12z
m-278 -37 c4 -5 -3 -7 -14 -4 -23 6 -26 13 -6 13 8 0 17 -4 20 -9z m473 -57
c-3 -3 -12 -4 -19 -1 -8 3 -5 6 6 6 11 1 17 -2 13 -5z m188 -46 c7 -7 3 -9
-10 -5 -11 3 -37 8 -57 12 -21 3 -38 10 -38 14 0 11 92 -8 105 -21z m215 -53
c34 -19 3 -20 -41 0 -31 13 -32 14 -9 14 14 0 36 -6 50 -14z m1837 -24 c7 -9
13 -21 13 -28 0 -20 18 -24 34 -7 15 14 17 13 26 -11 13 -33 12 -45 -1 -23
-10 18 -60 18 -83 -1 -21 -17 -54 -2 -49 22 4 18 3 19 -6 7 -7 -10 -11 -11
-11 -2 0 6 -4 12 -10 12 -5 0 -10 -7 -10 -15 0 -8 -4 -15 -10 -15 -16 0 -12
40 5 46 8 4 15 11 15 17 0 5 -8 3 -18 -6 -10 -10 -24 -17 -30 -17 -7 0 -12 -4
-12 -10 0 -5 -5 -10 -11 -10 -5 0 -7 5 -4 10 3 6 -1 10 -9 10 -9 0 -16 -4 -16
-10 0 -5 -4 -10 -10 -10 -5 0 -10 4 -10 9 0 15 74 45 113 45 20 -1 37 3 37 8
0 14 43 -2 57 -21z m44 10 c7 11 9 10 9 -5 0 -12 -5 -16 -16 -12 -9 3 -18 6
-20 6 -2 0 -4 8 -4 18 1 15 2 15 11 -2 9 -15 13 -16 20 -5z m-1350 -14 c-10
-9 -11 -8 -5 6 3 10 9 15 12 12 3 -3 0 -11 -7 -18z m1412 -30 c-3 -5 -10 -4
-15 1 -6 6 -7 16 -3 22 6 9 9 9 16 -1 4 -7 5 -17 2 -22z m-2033 -7 c13 -9 13
-10 0 -9 -8 0 -24 4 -35 9 l-20 9 20 0 c11 0 27 -4 35 -9z m1710 -10 c0 -5 -4
-10 -10 -10 -5 0 -10 5 -10 10 0 6 5 10 10 10 6 0 10 -4 10 -10z m-1648 -43
c12 -4 15 -12 11 -24 -7 -17 -8 -17 -11 0 -3 13 -10 16 -30 11 -21 -5 -25 -4
-15 6 6 7 9 20 6 29 -4 14 -3 14 9 0 7 -8 21 -18 30 -22z m35 27 c13 -4 21
-10 18 -13 -6 -10 -65 -1 -65 10 0 10 16 11 47 3z m-92 -22 c-11 -2 -28 -11
-37 -20 -11 -9 -18 -11 -18 -4 0 7 -7 9 -17 5 -10 -3 -15 -3 -11 1 12 13 83
34 93 28 5 -4 1 -8 -10 -10z m2101 1 c16 -21 18 -33 5 -33 -15 0 -42 31 -36
41 9 13 16 11 31 -8z m-336 -8 c7 -9 20 -13 30 -10 9 3 28 -4 43 -15 14 -11
35 -20 46 -20 12 0 21 -4 21 -10 0 -16 -47 -11 -65 6 -12 12 -36 17 -86 18
-73 1 -89 14 -41 33 37 15 38 15 52 -2z m230 -10 c10 -13 9 -15 -8 -15 -15 0
-20 5 -16 15 4 8 7 15 9 15 1 0 8 -7 15 -15z m535 -24 c-6 -5 -34 -11 -62 -13
-45 -4 -50 -3 -35 8 19 15 112 20 97 5z m-972 -8 c-7 -2 -21 -2 -30 0 -10 3
-4 5 12 5 17 0 24 -2 18 -5z m52 -3 c3 -5 -3 -10 -14 -10 -12 0 -21 5 -21 10
0 6 6 10 14 10 8 0 18 -4 21 -10z m445 -1 c0 -6 9 -8 20 -4 15 5 18 3 14 -9
-6 -16 -34 -30 -42 -21 -3 3 0 5 7 5 7 0 9 5 6 10 -9 15 -42 12 -48 -4 -4 -9
-14 -12 -27 -9 -37 10 -2 35 58 42 6 0 12 -4 12 -10z m-830 -19 c0 -13 -50
-13 -70 0 -11 7 -4 10 28 10 23 0 42 -4 42 -10z m975 0 c-3 -5 -12 -7 -20 -3
-21 7 -19 13 6 13 11 0 18 -4 14 -10z m385 -6 c0 -2 -15 -4 -32 -3 -27 0 -29
2 -13 8 18 8 45 4 45 -5z m76 -16 c4 -6 0 -14 -7 -20 -12 -7 -11 -11 4 -21 41
-27 51 -37 20 -22 -18 8 -39 15 -48 15 -15 0 -15 1 0 17 15 15 15 17 1 25 -9
5 -16 13 -16 18 0 11 38 1 46 -12z m-371 2 c19 7 31 7 40 0 6 -5 15 -8 19 -5
3 3 2 0 -3 -6 -17 -21 -158 -19 -145 2 3 5 9 7 14 4 5 -3 12 -1 15 5 5 8 11 8
20 0 9 -7 21 -7 40 0z m143 3 c-10 -2 -26 -2 -35 0 -10 3 -2 5 17 5 19 0 27
-2 18 -5z m-2042 -15 c4 -7 3 -8 -4 -4 -7 4 -12 1 -12 -8 0 -9 5 -16 12 -16 6
0 8 -3 4 -7 -10 -10 -56 -11 -50 -2 2 4 0 10 -6 14 -5 3 -10 1 -10 -6 0 -7 -3
-10 -6 -6 -3 3 -3 11 1 17 5 8 11 8 21 -1 11 -9 14 -7 14 10 0 22 24 29 36 9z
m1572 0 c18 -18 15 -23 -18 -24 -17 -1 -30 2 -30 5 0 9 22 31 30 31 3 0 11 -5
18 -12z m568 -13 c2 -22 -1 -25 -20 -19 -42 13 -48 44 -8 44 22 0 27 -5 28
-25z m-2396 5 c-8 -5 -19 -10 -25 -10 -5 0 -3 5 5 10 8 5 20 10 25 10 6 0 3
-5 -5 -10z m2030 -7 c2 -2 -12 -3 -32 -1 -20 1 -34 6 -32 10 5 7 53 1 64 -9z
m-110 -3 c0 -5 -7 -10 -15 -10 -8 0 -15 5 -15 10 0 6 7 10 15 10 8 0 15 -4 15
-10z m300 -10 c0 -5 -4 -10 -10 -10 -5 0 -10 5 -10 10 0 6 5 10 10 10 6 0 10
-4 10 -10z m-5317 -7 c-7 -2 -19 -2 -25 0 -7 3 -2 5 12 5 14 0 19 -2 13 -5z
m5220 -13 c4 0 5 5 1 12 -5 7 -3 8 5 3 18 -10 -2 -27 -22 -19 -9 3 -17 11 -17
17 0 7 4 7 12 -1 7 -7 16 -12 21 -12z m62 10 c-3 -5 -14 -10 -23 -9 -14 0 -13
2 3 9 27 11 27 11 20 0z m-358 -6 c-3 -3 -12 -4 -19 -1 -8 3 -5 6 6 6 11 1 17
-2 13 -5z m553 -4 c0 -5 -7 -10 -15 -10 -8 0 -15 5 -15 10 0 6 7 10 15 10 8 0
15 -4 15 -10z m-265 -26 c13 -9 28 -13 33 -11 4 3 13 -3 20 -13 8 -14 8 -21 1
-26 -6 -4 -14 -2 -18 4 -3 5 -14 11 -25 13 -10 2 -25 14 -34 27 -17 26 -10 28
23 6z m175 -4 c0 -13 -30 -20 -58 -13 l-27 6 35 12 c35 12 50 11 50 -5z m-746
-11 c-8 -13 -30 -11 -43 4 -8 11 -5 13 19 9 16 -2 27 -8 24 -13z m136 11 c11
-7 6 -10 -20 -10 -26 0 -31 3 -20 10 8 5 17 10 20 10 3 0 12 -5 20 -10z m-80
-10 c0 -5 -7 -7 -15 -4 -8 4 -15 8 -15 10 0 2 7 4 15 4 8 0 15 -4 15 -10z
m992 -7 c10 -9 18 -20 18 -25 0 -11 -38 14 -44 29 -7 18 4 16 26 -4z m-1708
-9 c9 -8 16 -17 16 -20 0 -2 -27 -4 -60 -4 -33 0 -60 4 -60 10 0 6 9 10 19 10
11 0 23 5 26 10 9 15 42 12 59 -6z m729 -24 c-13 -10 -23 -23 -23 -29 0 -13
-17 -14 -25 -2 -3 5 8 18 25 27 16 10 30 23 30 28 0 5 3 6 8 2 4 -4 -3 -16
-15 -26z m-1360 -5 c-28 -37 -47 -41 -28 -5 9 17 22 30 31 30 13 0 12 -4 -3
-25z m780 5 c3 -13 0 -20 -9 -20 -8 0 -14 2 -14 4 0 2 -3 11 -6 20 -4 10 -1
16 9 16 8 0 17 -9 20 -20z m-849 -15 c4 -12 2 -13 -13 -6 -10 6 -22 7 -26 3
-5 -4 -5 -1 -1 6 10 17 33 15 40 -3z m2457 -15 c31 -25 12 -26 -21 0 -14 11
-20 20 -14 20 7 0 22 -9 35 -20z m-1147 -19 c3 -4 18 -6 33 -4 23 3 25 2 11
-7 -19 -11 -68 -4 -68 11 0 12 17 12 24 0z m734 -7 c12 -4 22 -13 22 -20 0
-15 -21 -15 -32 1 -4 6 -8 1 -8 -9 0 -18 -1 -18 -18 -3 -24 22 -60 4 -40 -21
11 -15 10 -14 -8 1 -11 9 -24 14 -28 10 -4 -4 -4 0 -1 9 12 30 64 45 113 32z
m-1213 -60 c0 -19 -3 -34 -7 -34 -5 0 -8 5 -8 12 0 9 -3 9 -12 0 -7 -7 -18
-12 -26 -12 -8 0 -20 -6 -26 -14 -6 -8 -31 -16 -56 -17 -48 -3 -54 8 -24 42
17 19 72 30 80 17 8 -13 24 -9 24 7 0 9 -6 12 -15 9 -10 -4 -15 0 -15 10 0 22
39 36 65 24 15 -7 21 -19 20 -44z m1269 47 c3 -5 20 -11 36 -13 23 -3 30 -1
26 9 -9 24 28 14 63 -17 l34 -31 -29 2 c-16 2 -38 -1 -50 -5 -14 -4 -26 -1
-34 9 -7 8 -18 15 -25 15 -6 0 -20 9 -30 20 -10 11 -13 20 -7 20 6 0 13 -4 16
-9z m210 -60 c19 -20 23 -29 13 -27 -18 2 -57 35 -57 48 0 16 16 8 44 -21z
m-4747 -18 c3 -7 -4 -9 -16 -6 -12 3 -18 9 -15 15 7 11 26 6 31 -9z m4163 7
c0 -5 -2 -10 -4 -10 -3 0 -8 5 -11 10 -3 6 -1 10 4 10 6 0 11 -4 11 -10z
m-900 -29 c0 -5 -11 -11 -25 -13 -20 -4 -23 -3 -14 8 13 16 39 19 39 5z
m-3435 -31 c3 -5 -1 -10 -9 -10 -9 0 -16 5 -16 10 0 6 4 10 9 10 6 0 13 -4 16
-10z m5222 -30 c3 -10 2 -11 -4 -4 -4 6 -15 14 -23 17 -11 5 -9 6 4 4 11 -1
21 -9 23 -17z m103 -31 c0 -5 -7 -9 -15 -9 -8 0 -15 7 -15 15 0 9 6 12 15 9 8
-4 15 -10 15 -15z m-6710 -9 c-8 -5 -22 -9 -30 -9 -10 0 -8 3 5 9 27 12 43 12
25 0z m58 -6 c33 -23 27 -38 -8 -17 -16 9 -30 21 -30 25 0 12 13 10 38 -8z
m4810 -10 c-4 -3 -17 -2 -30 2 -22 7 -22 7 -3 14 20 8 44 -4 33 -16z m-1388
-44 c0 -5 -4 -10 -10 -10 -5 0 -10 5 -10 10 0 6 5 10 10 10 6 0 10 -4 10 -10z
m560 -100 c0 -5 -12 -10 -26 -10 -14 0 -23 4 -19 10 3 6 15 10 26 10 10 0 19
-4 19 -10z m1423 -67 c-7 -2 -19 -2 -25 0 -7 3 -2 5 12 5 14 0 19 -2 13 -5z
m390 -32 c3 -14 1 -18 -9 -14 -15 6 -18 16 -7 26 9 10 10 9 16 -12z m-3473 -1
c0 -5 -4 -10 -10 -10 -5 0 -10 5 -10 10 0 6 5 10 10 10 6 0 10 -4 10 -10z
m3385 0 c-3 -5 -32 -9 -63 -8 l-57 1 55 7 c30 4 59 7 63 8 5 1 5 -2 2 -8z
m-212 -7 c-7 -2 -21 -2 -30 0 -10 3 -4 5 12 5 17 0 24 -2 18 -5z m-3606 -9
c-3 -3 -12 -4 -19 -1 -8 3 -5 6 6 6 11 1 17 -2 13 -5z m3426 -21 c-13 -2 -35
-2 -50 0 -16 2 -5 4 22 4 28 0 40 -2 28 -4z m555 -38 c11 1 19 -2 16 -7 -7
-12 -74 -10 -74 2 0 6 -10 10 -22 10 -21 0 -21 0 -2 19 19 19 19 19 40 -3 11
-12 30 -22 42 -21z m592 34 c0 -5 5 -7 10 -4 6 3 10 1 10 -4 0 -14 -13 -14
-28 1 -9 9 -12 9 -12 -1 0 -7 -5 -9 -10 -6 -6 4 -8 11 -5 16 8 12 35 11 35 -2z
m-527 -6 c-7 -2 -19 -2 -25 0 -7 3 -2 5 12 5 14 0 19 -2 13 -5z m306 -7 c-2
-2 -20 -6 -39 -10 -25 -4 -31 -3 -20 4 14 9 69 15 59 6z m-499 -16 c0 -5 -17
-10 -37 -9 -31 0 -34 2 -18 9 28 12 55 12 55 0z m353 3 c-7 -2 -19 -2 -25 0
-7 3 -2 5 12 5 14 0 19 -2 13 -5z m60 0 c-7 -2 -21 -2 -30 0 -10 3 -4 5 12 5
17 0 24 -2 18 -5z m537 -8 c0 -8 -2 -15 -4 -15 -2 0 -6 7 -10 15 -3 8 -1 15 4
15 6 0 10 -7 10 -15z m-4560 -11 l35 -14 -40 6 c-22 3 -47 10 -55 15 -25 14
20 10 60 -7z m3290 -6 c0 -13 -23 -5 -28 10 -2 7 2 10 12 6 9 -3 16 -11 16
-16z m170 12 c-20 -13 -40 -13 -40 0 0 6 12 10 28 10 21 0 24 -2 12 -10z
m-622 -70 c0 -22 -1 -22 -8 5 -4 17 -8 39 -8 50 0 16 2 15 8 -5 4 -14 8 -36 8
-50z m400 63 c-10 -2 -28 -2 -40 0 -13 2 -5 4 17 4 22 1 32 -1 23 -4z m-218
-13 c0 -5 -4 -10 -10 -10 -5 0 -10 5 -10 10 0 6 5 10 10 10 6 0 10 -4 10 -10z
m-53 -152 c-3 -8 -6 -5 -6 6 -1 11 2 17 5 13 3 -3 4 -12 1 -19z m76 -21 c-7
-11 -23 12 -23 32 0 11 4 9 14 -4 8 -11 12 -24 9 -28z m-2978 -18 c4 -6 5 -12
3 -14 -7 -7 -48 7 -48 16 0 13 37 11 45 -2z m49 -14 c11 -8 17 -17 14 -21 -8
-8 -48 14 -48 26 0 14 12 12 34 -5z m2908 -160 c3 -14 2 -25 -2 -25 -4 0 -10
13 -12 29 -5 36 8 32 14 -4z m-107 -15 c3 -5 1 -10 -4 -10 -6 0 -11 5 -11 10
0 6 2 10 4 10 3 0 8 -4 11 -10z m-5388 -92 c-3 -8 -6 -5 -6 6 -1 11 2 17 5 13
3 -3 4 -12 1 -19z m93 -118 c0 -5 -6 -10 -14 -10 -8 0 -18 5 -21 10 -3 6 3 10
14 10 12 0 21 -4 21 -10z m115 -20 c3 -5 2 -10 -4 -10 -5 0 -13 5 -16 10 -3 6
-2 10 4 10 5 0 13 -4 16 -10z"/>
<path d="M3395 4660 c-3 -5 1 -10 10 -10 9 0 13 5 10 10 -3 6 -8 10 -10 10 -2
0 -7 -4 -10 -10z"/>
<path d="M3430 4640 c0 -5 5 -10 11 -10 5 0 7 5 4 10 -3 6 -8 10 -11 10 -2 0
-4 -4 -4 -10z"/>
<path d="M3576 4596 c3 -7 11 -13 19 -13 22 0 18 14 -4 20 -13 3 -18 0 -15 -7z"/>
<path d="M3938 4533 c7 -3 16 -2 19 1 4 3 -2 6 -13 5 -11 0 -14 -3 -6 -6z"/>
<path d="M3675 4520 c27 -12 35 -12 35 0 0 6 -12 10 -27 9 -25 0 -26 -1 -8 -9z"/>
<path d="M3843 4463 c-13 -2 -23 -12 -23 -21 0 -12 3 -13 12 -4 7 7 22 12 35
12 13 0 23 5 23 10 0 10 -8 11 -47 3z"/>
<path d="M6716 3584 c-3 -8 1 -17 10 -21 22 -8 29 4 11 21 -13 14 -16 14 -21
0z"/>
<path d="M6810 3580 c0 -5 5 -10 11 -10 5 0 7 5 4 10 -3 6 -8 10 -11 10 -2 0
-4 -4 -4 -10z"/>
<path d="M6780 3543 c0 -6 5 -15 10 -18 6 -3 10 -15 10 -26 0 -10 5 -19 10
-19 15 0 12 11 -10 45 -11 17 -20 25 -20 18z"/>
<path d="M6670 3501 c0 -10 50 -25 57 -17 3 2 2 9 -2 15 -8 13 -55 15 -55 2z"/>
<path d="M6746 3484 c-4 -9 -4 -19 -1 -22 3 -3 5 0 5 6 0 17 19 15 37 -3 8 -9
18 -13 22 -9 3 4 0 9 -6 11 -7 3 -13 11 -13 19 0 20 -36 18 -44 -2z"/>
<path d="M6878 3423 c7 -3 16 -2 19 1 4 3 -2 6 -13 5 -11 0 -14 -3 -6 -6z"/>
<path d="M6945 3410 c-8 -13 20 -24 41 -16 20 8 9 26 -16 26 -10 0 -22 -5 -25
-10z"/>
<path d="M13140 2236 c0 -2 7 -7 16 -10 8 -3 12 -2 9 4 -6 10 -25 14 -25 6z"/>
<path d="M13170 2200 c0 -5 5 -10 11 -10 5 0 7 5 4 10 -3 6 -8 10 -11 10 -2 0
-4 -4 -4 -10z"/>
<path d="M13125 2050 c-3 -5 -1 -10 4 -10 6 0 11 5 11 10 0 6 -2 10 -4 10 -3
0 -8 -4 -11 -10z"/>
<path d="M13443 8988 c3 -7 23 -56 45 -108 168 -402 241 -802 229 -1250 -11
-401 -84 -736 -245 -1120 -43 -102 -93 -201 -191 -375 -33 -60 -61 -116 -61
-124 0 -11 12 -12 63 -6 34 4 69 7 77 7 8 -1 40 -3 70 -5 30 -2 62 -7 70 -10
14 -5 69 -9 300 -23 41 -3 108 -5 148 -5 39 1 72 -3 72 -9 0 -5 10 -8 23 -7
20 2 197 -9 310 -19 l47 -4 0 1535 0 1535 -481 0 c-381 0 -480 -3 -476 -12z"/>
<path d="M12538 8645 c2 -14 6 -25 8 -25 2 0 4 11 4 25 0 14 -4 25 -9 25 -4 0
-6 -11 -3 -25z"/>
<path d="M12640 8203 c0 -13 5 -23 10 -23 13 0 13 11 0 30 -8 12 -10 11 -10
-7z"/>
<path d="M12886 6587 c3 -10 9 -15 12 -12 3 3 0 11 -7 18 -10 9 -11 8 -5 -6z"/>
<path d="M4818 6393 c7 -3 16 -2 19 1 4 3 -2 6 -13 5 -11 0 -14 -3 -6 -6z"/>
<path d="M5658 6393 c6 -2 18 -2 25 0 6 3 1 5 -13 5 -14 0 -19 -2 -12 -5z"/>
<path d="M4490 6350 c0 -5 5 -10 11 -10 5 0 7 5 4 10 -3 6 -8 10 -11 10 -2 0
-4 -4 -4 -10z"/>
<path d="M4528 6353 c6 -2 18 -2 25 0 6 3 1 5 -13 5 -14 0 -19 -2 -12 -5z"/>
<path d="M4490 6319 c0 -5 5 -7 10 -4 6 3 10 8 10 11 0 2 -4 4 -10 4 -5 0 -10
-5 -10 -11z"/>
<path d="M4711 6244 c0 -11 3 -14 6 -6 3 7 2 16 -1 19 -3 4 -6 -2 -5 -13z"/>
<path d="M9135 6240 c-3 -5 -1 -10 4 -10 6 0 11 5 11 10 0 6 -2 10 -4 10 -3 0
-8 -4 -11 -10z"/>
<path d="M4640 6170 c0 -6 11 -8 28 -4 39 10 40 14 4 14 -18 0 -32 -5 -32 -10z"/>
<path d="M4748 6173 c6 -2 18 -2 25 0 6 3 1 5 -13 5 -14 0 -19 -2 -12 -5z"/>
<path d="M4943 6173 c9 -2 25 -2 35 0 9 3 1 5 -18 5 -19 0 -27 -2 -17 -5z"/>
<path d="M7043 6169 c33 -13 36 -39 5 -40 -20 0 -21 -1 -5 -8 16 -6 19 -21 21
-108 1 -56 -1 -100 -6 -97 -4 3 -9 -14 -10 -38 -1 -24 -2 -52 -3 -63 -1 -11
-3 -28 -4 -39 -1 -18 -8 -18 -104 -12 -61 4 -112 3 -127 -3 -24 -9 -24 -10 9
-10 18 -1 72 -6 120 -12 l86 -12 -3 -166 c-3 -122 -7 -172 -18 -188 -16 -25
-19 -113 -5 -113 5 0 17 -7 25 -15 14 -14 16 -14 20 7 3 13 7 79 10 148 3 69
7 139 10 155 2 17 7 111 11 210 3 99 8 217 12 262 5 73 8 82 27 86 21 4 21 4
-1 6 -16 1 -20 6 -16 21 4 14 11 19 23 15 10 -3 21 -1 25 5 4 6 -5 10 -22 10
-15 0 -46 2 -68 5 -37 5 -38 4 -12 -6z"/>
<path d="M4888 6163 c7 -3 16 -2 19 1 4 3 -2 6 -13 5 -11 0 -14 -3 -6 -6z"/>
<path d="M12730 6025 c0 -8 4 -15 10 -15 5 0 7 7 4 15 -4 8 -8 15 -10 15 -2 0
-4 -7 -4 -15z"/>
<path d="M5235 5999 c-22 -3 -38 -7 -35 -8 10 -3 416 -31 454 -31 26 0 37 3
30 10 -20 20 -361 42 -449 29z"/>
<path d="M5127 5950 c-6 -25 1 -26 19 -2 12 16 13 15 14 -5 0 -14 6 -23 15
-23 14 0 13 3 -1 25 -20 30 -40 32 -47 5z"/>
<path d="M5517 5836 c-5 -12 0 -16 21 -15 32 1 84 17 61 18 -9 1 -30 4 -46 7
-22 4 -32 2 -36 -10z"/>
<path d="M7100 5739 c0 -12 5 -19 12 -17 18 6 20 25 3 31 -10 5 -15 0 -15 -14z"/>
<path d="M7150 5740 c0 -5 14 -7 33 -3 45 8 47 13 4 13 -20 0 -37 -4 -37 -10z"/>
<path d="M7558 5723 c7 -3 16 -2 19 1 4 3 -2 6 -13 5 -11 0 -14 -3 -6 -6z"/>
<path d="M7590 5714 c0 -8 5 -12 10 -9 6 4 8 11 5 16 -9 14 -15 11 -15 -7z"/>
<path d="M4688 5673 c7 -3 16 -2 19 1 4 3 -2 6 -13 5 -11 0 -14 -3 -6 -6z"/>
<path d="M5300 5670 c0 -5 7 -10 15 -10 8 0 15 5 15 10 0 6 -7 10 -15 10 -8 0
-15 -4 -15 -10z"/>
<path d="M5415 5654 c39 -17 65 -17 65 -1 0 10 -15 14 -47 14 l-48 0 30 -13z"/>
<path d="M5578 5653 c7 -3 16 -2 19 1 4 3 -2 6 -13 5 -11 0 -14 -3 -6 -6z"/>
<path d="M5620 5651 c0 -16 43 -41 70 -41 14 0 31 9 38 20 11 18 10 20 -14 20
-14 0 -23 -4 -19 -10 10 -16 -32 -12 -49 5 -17 17 -26 19 -26 6z"/>
<path d="M4690 5637 c14 -8 27 -12 30 -10 7 6 -23 23 -40 23 -8 0 -4 -6 10
-13z"/>
<path d="M4747 5644 c-16 -17 -4 -24 38 -24 25 0 45 5 45 10 0 6 -11 10 -24
10 -13 0 -31 2 -38 5 -8 3 -17 2 -21 -1z"/>
<path d="M4847 5626 c-4 -11 2 -14 23 -14 27 1 28 2 12 14 -22 17 -29 17 -35
0z"/>
<path d="M6280 5591 c13 -10 44 -21 68 -23 42 -3 66 6 40 15 -7 2 3 3 22 2 19
-1 43 -5 53 -9 9 -5 26 -6 37 -3 11 3 20 1 20 -4 0 -26 189 -35 205 -9 2 4 16
5 30 2 15 -2 25 0 25 7 0 6 -19 12 -42 12 -57 2 -99 6 -145 13 -21 3 -105 8
-188 11 l-150 6 25 -20z m320 -15 c0 -3 -4 -8 -10 -11 -5 -3 -10 -1 -10 4 0 6
5 11 10 11 6 0 10 -2 10 -4z"/>
<path d="M7142 5580 c9 -6 51 -13 94 -16 43 -3 82 -6 87 -7 5 -1 11 3 14 10 2
7 -4 11 -14 11 -10 -1 -58 2 -108 5 -61 4 -85 3 -73 -3z"/>
<path d="M6792 5564 c3 -16 11 -18 45 -16 27 2 46 -2 57 -13 15 -15 20 -15 68
4 46 18 49 20 23 20 -56 0 -177 11 -187 17 -6 4 -8 -2 -6 -12z"/>
<path d="M5490 5522 c0 -15 34 -21 135 -23 54 -2 99 2 110 9 16 9 1 11 -75 12
-52 0 -112 3 -132 6 -23 4 -38 3 -38 -4z"/>
<path d="M7260 5510 c0 -10 68 -11 74 -1 3 5 -12 8 -34 8 -22 0 -40 -3 -40 -7z"/>
<path d="M9135 5500 c3 -5 13 -10 21 -10 8 0 12 5 9 10 -3 6 -13 10 -21 10 -8
0 -12 -4 -9 -10z"/>
<path d="M3590 5289 c0 -14 20 -20 36 -11 14 8 12 10 -10 14 -14 3 -26 2 -26
-3z"/>
<path d="M12343 5250 c-12 -29 -7 -44 13 -36 7 3 16 1 19 -4 4 -6 24 -10 45
-10 30 0 38 3 34 14 -6 15 -44 29 -44 16 0 -18 -49 4 -53 24 -3 20 -4 20 -14
-4z"/>
<path d="M12616 5245 c3 -7 -3 -15 -13 -18 -10 -2 -27 -8 -37 -13 -13 -5 -17
-4 -13 3 4 7 -3 10 -18 9 -14 0 -25 -5 -25 -9 0 -5 -9 -5 -20 -2 -14 4 -20 2
-20 -8 0 -16 65 -29 113 -22 15 2 27 -1 27 -6 0 -6 19 -9 43 -9 23 1 54 -2 70
-5 22 -6 27 -4 27 11 1 18 2 18 14 2 7 -9 22 -16 34 -15 25 1 17 13 -13 19
-11 2 -19 10 -17 17 4 21 -19 41 -47 41 -14 -1 -45 3 -68 8 -31 7 -40 6 -37
-3z m62 -17 c-7 -19 -38 -22 -38 -4 0 10 9 16 21 16 12 0 19 -5 17 -12z m72
-13 c0 -8 -7 -15 -15 -15 -8 0 -15 7 -15 15 0 8 7 15 15 15 8 0 15 -7 15 -15z
m-105 -25 c3 -5 1 -10 -4 -10 -6 0 -11 5 -11 10 0 6 2 10 4 10 3 0 8 -4 11
-10z"/>
<path d="M12290 5241 c0 -5 5 -13 10 -16 6 -3 10 -2 10 4 0 5 -4 13 -10 16 -5
3 -10 2 -10 -4z"/>
<path d="M7020 5150 c-1 -22 -2 -23 -11 -7 -17 29 -40 21 -39 -15 1 -18 -2
-45 -5 -60 -6 -20 -3 -27 12 -31 16 -4 16 -6 -4 -12 -14 -5 -24 -20 -32 -50
-14 -55 -14 -55 4 -55 8 0 15 -6 15 -12 0 -10 2 -10 9 0 7 11 10 10 15 -3 3
-9 4 -21 0 -26 -3 -5 3 -9 13 -9 13 0 22 12 31 43 14 52 11 97 -6 97 -7 0 -10
-5 -6 -12 4 -7 3 -8 -4 -4 -19 11 -14 26 8 26 21 0 25 25 20 105 -2 38 -20 59
-20 25z"/>
<path d="M11975 5160 c-3 -5 -2 -10 4 -10 5 0 13 5 16 10 3 6 2 10 -4 10 -5 0
-13 -4 -16 -10z"/>
<path d="M12018 5163 c7 -3 16 -2 19 1 4 3 -2 6 -13 5 -11 0 -14 -3 -6 -6z"/>
<path d="M12275 5160 c3 -5 29 -10 57 -10 64 0 60 5 -10 14 -37 5 -52 4 -47
-4z"/>
<path d="M3835 5102 c6 -6 24 -14 40 -18 21 -4 27 -3 20 4 -5 6 -23 14 -40 18
-21 4 -27 3 -20 -4z"/>
<path d="M12534 5093 c11 -11 46 -14 46 -3 0 6 -12 10 -27 10 -14 0 -23 -3
-19 -7z"/>
<path d="M12875 4990 c3 -5 8 -10 11 -10 2 0 4 5 4 10 0 6 -5 10 -11 10 -5 0
-7 -4 -4 -10z"/>
<path d="M3866 4983 c-8 -9 40 -43 60 -43 16 0 16 1 0 19 -18 20 -51 33 -60
24z"/>
<path d="M4356 4983 c-4 -5 -11 -8 -14 -9 -4 0 -14 -4 -23 -8 -9 -4 -22 -6
-30 -4 -9 2 -14 -7 -15 -24 -1 -31 10 -36 24 -12 6 11 14 14 23 8 20 -12 49
-12 56 -1 3 6 1 7 -5 3 -15 -9 -15 9 -2 35 10 19 1 26 -14 12z"/>
<path d="M13251 4913 c7 -12 15 -20 18 -17 3 2 -3 12 -13 22 -17 16 -18 16 -5
-5z"/>
<path d="M13908 4893 c7 -3 16 -2 19 1 4 3 -2 6 -13 5 -11 0 -14 -3 -6 -6z"/>
<path d="M13025 4870 c11 -5 27 -9 35 -9 9 0 8 4 -5 9 -11 5 -27 9 -35 9 -9 0
-8 -4 5 -9z"/>
<path d="M5213 4844 c-3 -8 -1 -20 6 -27 17 -17 13 -24 -16 -32 l-28 -8 33 -9
c20 -5 30 -13 26 -20 -5 -7 -2 -9 9 -5 9 3 29 -5 50 -21 55 -44 67 -59 65 -83
-3 -18 2 -22 32 -23 23 -1 40 5 51 18 13 16 19 17 39 6 28 -15 90 -22 90 -11
0 4 -16 16 -35 27 -42 22 -45 33 -7 33 15 0 45 3 67 5 66 8 111 9 133 2 17 -6
19 -3 15 14 -5 20 -3 21 43 15 27 -3 56 -8 65 -10 29 -9 109 -12 109 -5 0 5
-22 13 -50 20 -27 7 -50 16 -50 22 0 5 -15 8 -33 7 -18 -2 -38 1 -45 5 -7 4
-25 5 -39 2 -15 -4 -31 -2 -40 6 -9 7 -18 12 -20 11 -8 -7 -23 -2 -37 13 -9 8
-26 16 -38 16 -13 1 -28 5 -35 10 -6 5 -14 5 -18 -1 -4 -7 -14 -6 -29 4 -13 9
-31 13 -40 9 -9 -4 -24 0 -34 9 -25 22 -230 23 -239 1z"/>
<path d="M5080 4820 c0 -5 5 -10 11 -10 5 0 7 5 4 10 -3 6 -8 10 -11 10 -2 0
-4 -4 -4 -10z"/>
<path d="M13048 4813 c7 -3 16 -2 19 1 4 3 -2 6 -13 5 -11 0 -14 -3 -6 -6z"/>
<path d="M5818 4688 c-9 -5 -4 -8 15 -8 15 0 27 4 27 8 0 11 -25 11 -42 0z"/>
<path d="M5880 4680 c0 -5 5 -10 10 -10 6 0 10 5 10 10 0 6 -4 10 -10 10 -5 0
-10 -4 -10 -10z"/>
<path d="M5590 4670 c0 -5 5 -10 10 -10 6 0 15 -10 20 -22 5 -13 9 -17 9 -10
1 8 6 10 14 6 7 -5 7 -2 -2 10 -19 23 -51 40 -51 26z"/>
<path d="M5995 4620 c3 -5 8 -10 11 -10 2 0 4 5 4 10 0 6 -5 10 -11 10 -5 0
-7 -4 -4 -10z"/>
<path d="M5043 4610 c-24 -4 -46 -10 -50 -14 -5 -4 -1 -6 7 -5 8 2 37 -5 63
-15 39 -14 51 -16 60 -6 9 10 9 14 -1 17 -7 3 -18 10 -25 17 -7 7 -28 9 -54 6z"/>
<path d="M10440 4467 c0 -7 -10 -21 -22 -31 -17 -15 -25 -16 -40 -7 -10 6 -26
11 -35 10 -11 0 -13 -3 -5 -6 6 -2 12 -12 12 -22 0 -18 18 -41 32 -41 4 0 8 8
8 18 0 15 6 18 30 14 32 -5 52 -22 26 -22 -8 0 -20 -9 -26 -20 -6 -11 -17 -20
-25 -20 -28 0 -15 -19 18 -28 36 -10 49 -6 27 8 -12 8 -11 10 6 10 11 0 25 -5
32 -12 8 -8 18 -9 36 0 14 6 55 8 102 5 44 -2 90 -5 104 -6 19 -2 24 2 22 16
-3 20 6 21 31 2 22 -16 67 -1 67 23 0 11 3 12 14 3 10 -9 16 -8 26 4 9 11 9
15 1 15 -7 0 -9 5 -5 11 4 8 9 8 13 1 3 -6 29 -21 56 -33 28 -13 52 -24 55
-26 3 -2 6 8 6 22 1 15 -4 25 -11 25 -8 0 -20 7 -28 15 -12 11 -37 14 -113 12
-97 -3 -99 -3 -126 25 -14 15 -31 28 -36 28 -6 0 -12 6 -14 12 -3 9 -18 2 -42
-20 -35 -31 -41 -32 -97 -28 -68 5 -79 10 -79 37 0 10 -4 19 -10 19 -5 0 -10
-6 -10 -13z"/>
<path d="M11020 4389 c0 -5 5 -7 10 -4 6 3 10 8 10 11 0 2 -4 4 -10 4 -5 0
-10 -5 -10 -11z"/>
<path d="M11112 4371 c-21 -13 25 -22 55 -10 15 6 31 5 43 -1 24 -13 80 -13
80 -1 0 5 -13 8 -30 6 -16 -2 -32 0 -35 6 -8 11 -95 12 -113 0z"/>
<path d="M11340 4360 c-9 -6 -10 -10 -3 -10 6 0 15 5 18 10 8 12 4 12 -15 0z"/>
<path d="M10461 4274 c12 -15 99 -16 99 -1 0 4 -6 7 -12 8 -7 0 -32 2 -56 4
-36 3 -41 1 -31 -11z"/>
<path d="M9760 4242 c0 -12 19 -26 26 -19 2 2 -2 10 -11 17 -9 8 -15 8 -15 2z"/>
<path d="M10190 4241 c0 -5 7 -12 16 -15 22 -9 24 -8 24 9 0 8 -9 15 -20 15
-11 0 -20 -4 -20 -9z"/>
<path d="M10385 4220 c3 -5 11 -10 16 -10 6 0 7 5 4 10 -3 6 -11 10 -16 10 -6
0 -7 -4 -4 -10z"/>
<path d="M9418 4203 c7 -3 16 -2 19 1 4 3 -2 6 -13 5 -11 0 -14 -3 -6 -6z"/>
<path d="M9580 4181 c0 -5 9 -11 20 -14 24 -6 27 8 4 17 -21 8 -24 8 -24 -3z"/>
<path d="M9212 4110 c5 -16 30 -21 49 -9 11 7 11 9 -3 9 -9 0 -24 3 -34 7 -11
4 -15 2 -12 -7z"/>
<path d="M7765 3991 l-39 -6 28 -13 c28 -13 96 -7 96 8 0 8 -27 21 -38 19 -4
-1 -25 -5 -47 -8z"/>
<path d="M8210 3951 c9 -33 -8 -49 -29 -28 -7 7 -31 12 -54 12 -23 0 -53 4
-66 9 l-23 8 23 -31 c12 -17 29 -31 38 -31 8 0 22 -7 32 -16 16 -14 20 -14 51
2 38 19 50 34 43 52 -3 7 3 16 12 19 14 6 14 8 -3 20 -27 20 -33 16 -24 -16z"/>
<path d="M9115 3970 c3 -5 8 -10 11 -10 2 0 4 5 4 10 0 6 -5 10 -11 10 -5 0
-7 -4 -4 -10z"/>
<path d="M8607 3948 c13 -14 14 -21 5 -30 -22 -22 -12 -36 31 -43 23 -4 47
-12 54 -17 23 -19 87 -48 105 -48 27 0 23 44 -7 66 -14 10 -25 24 -25 31 0 7
-10 10 -24 7 -14 -2 -37 1 -53 8 -15 6 -36 10 -46 9 -12 -2 -17 3 -15 15 2 11
-4 18 -20 19 -21 2 -21 1 -5 -17z"/>
<path d="M7686 3952 c-6 -10 -2 -39 7 -48 4 -4 19 -9 33 -10 14 -2 34 -10 43
-18 22 -20 41 -20 41 -1 0 8 -11 17 -25 21 -13 3 -35 19 -47 35 -23 29 -42 36
-52 21z"/>
<path d="M7860 3950 c0 -5 7 -10 16 -10 8 0 12 5 9 10 -3 6 -10 10 -16 10 -5
0 -9 -4 -9 -10z"/>
<path d="M9510 3950 c0 -5 5 -10 11 -10 5 0 7 5 4 10 -3 6 -8 10 -11 10 -2 0
-4 -4 -4 -10z"/>
<path d="M7795 3940 c3 -5 8 -10 11 -10 2 0 4 5 4 10 0 6 -5 10 -11 10 -5 0
-7 -4 -4 -10z"/>
<path d="M9136 3926 c3 -8 0 -17 -6 -21 -11 -7 11 -29 35 -35 6 -2 16 -11 23
-21 13 -19 38 -27 27 -9 -9 14 9 12 24 -2 10 -11 11 -10 6 4 -4 9 -17 19 -30
22 -13 3 -37 11 -52 17 -27 10 -28 11 -8 25 17 13 18 16 5 24 -21 14 -30 12
-24 -4z"/>
<path d="M7917 3912 c-16 -2 -31 -11 -34 -20 -4 -9 -11 -20 -17 -24 -14 -9 -7
-15 27 -23 22 -6 26 -4 21 9 -7 20 3 20 36 1 31 -18 48 -19 32 -3 -7 7 -12 20
-12 29 0 23 -20 35 -53 31z"/>
<path d="M9065 3910 c-3 -5 -1 -10 4 -10 6 0 11 5 11 10 0 6 -2 10 -4 10 -3 0
-8 -4 -11 -10z"/>
<path d="M7525 3860 c3 -5 11 -10 16 -10 6 0 7 5 4 10 -3 6 -11 10 -16 10 -6
0 -7 -4 -4 -10z"/>
<path d="M7560 3860 c0 -5 5 -10 10 -10 6 0 10 5 10 10 0 6 -4 10 -10 10 -5 0
-10 -4 -10 -10z"/>
<path d="M7150 3850 c0 -5 7 -10 16 -10 8 0 12 5 9 10 -3 6 -10 10 -16 10 -5
0 -9 -4 -9 -10z"/>
<path d="M7937 3829 c7 -7 15 -10 18 -7 3 3 -2 9 -12 12 -14 6 -15 5 -6 -5z"/>
<path d="M8168 3800 c-29 -17 -28 -30 2 -30 15 0 50 29 50 42 0 10 -26 4 -52
-12z"/>
<path d="M8985 3800 c-8 -12 17 -23 41 -18 14 2 12 6 -9 15 -16 8 -29 9 -32 3z"/>
<path d="M8015 3790 c3 -5 10 -10 16 -10 5 0 9 5 9 10 0 6 -7 10 -16 10 -8 0
-12 -4 -9 -10z"/>
<path d="M7472 3753 c2 -11 13 -19 28 -19 14 -1 37 -5 53 -9 23 -6 26 -5 21 9
-4 10 -13 15 -21 12 -8 -3 -12 -2 -9 3 7 11 -17 21 -51 21 -18 0 -24 -5 -21
-17z"/>
<path d="M7644 3739 c-3 -6 0 -15 7 -20 23 -14 30 -10 19 11 -12 23 -16 24
-26 9z"/>
<path d="M9100 3526 c0 -2 7 -7 16 -10 8 -3 12 -2 9 4 -6 10 -25 14 -25 6z"/>
<path d="M8698 3473 c6 -2 18 -2 25 0 6 3 1 5 -13 5 -14 0 -19 -2 -12 -5z"/>
<path d="M9273 3467 c4 -12 25 -17 79 -20 34 -2 57 7 47 18 -11 10 -130 13
-126 2z"/>
<path d="M9436 3427 c6 -18 47 -25 89 -16 34 7 33 9 -10 14 -16 2 -42 6 -58
10 -22 6 -26 4 -21 -8z"/>
<path d="M10346 3372 c-8 -13 46 -23 59 -11 5 6 3 9 -7 9 -9 0 -23 3 -31 6 -8
3 -18 1 -21 -4z"/>
<path d="M10478 3358 c5 -5 16 -8 23 -6 8 3 3 7 -10 11 -17 4 -21 3 -13 -5z"/>
<path d="M9891 3356 c11 -9 69 -15 64 -6 -3 6 -20 10 -37 10 -17 0 -29 -2 -27
-4z"/>
<path d="M9717 3242 c-3 -4 1 -13 9 -19 7 -7 15 -9 17 -5 3 4 -1 13 -9 19 -7
7 -15 9 -17 5z"/>
<path d="M9842 3173 c-9 -4 -6 -14 10 -36 12 -18 22 -33 23 -35 4 -5 35 10 35
18 0 4 -9 10 -20 13 -11 3 -23 14 -27 25 -5 10 -14 17 -21 15z"/>
<path d="M9960 3105 c0 -9 6 -12 15 -9 8 4 15 7 15 9 0 2 -7 5 -15 9 -9 3 -15
0 -15 -9z"/>
<path d="M9930 3101 c0 -6 5 -13 10 -16 6 -3 10 1 10 9 0 9 -4 16 -10 16 -5 0
-10 -4 -10 -9z"/>
<path d="M9840 3030 c0 -5 9 -14 20 -20 16 -8 18 -8 14 4 -6 17 -34 30 -34 16z"/>
<path d="M10040 3019 c0 -5 9 -9 20 -9 11 0 20 2 20 4 0 2 -9 6 -20 9 -11 3
-20 1 -20 -4z"/>
<path d="M10105 2980 c-3 -5 -1 -10 4 -10 6 0 11 5 11 10 0 6 -2 10 -4 10 -3
0 -8 -4 -11 -10z"/>
<path d="M10130 2960 c-6 -11 -7 -20 -2 -20 6 0 12 9 15 20 3 11 3 20 1 20 -2
0 -8 -9 -14 -20z"/>
<path d="M10538 2973 c7 -3 16 -2 19 1 4 3 -2 6 -13 5 -11 0 -14 -3 -6 -6z"/>
<path d="M11085 2930 c-3 -5 -1 -10 4 -10 6 0 11 5 11 10 0 6 -2 10 -4 10 -3
0 -8 -4 -11 -10z"/>
<path d="M10097 2917 c2 -4 17 -6 33 -5 16 1 27 4 25 7 -8 8 -63 6 -58 -2z"/>
<path d="M10030 2910 c20 -13 33 -13 25 0 -3 6 -14 10 -23 10 -15 0 -15 -2 -2
-10z"/>
<path d="M11273 2913 c9 -2 23 -2 30 0 6 3 -1 5 -18 5 -16 0 -22 -2 -12 -5z"/>
<path d="M10770 2889 c0 -5 12 -7 26 -5 38 7 39 13 4 14 -16 0 -30 -4 -30 -9z"/>
<path d="M10855 2890 c3 -5 8 -10 11 -10 2 0 4 5 4 10 0 6 -5 10 -11 10 -5 0
-7 -4 -4 -10z"/>
<path d="M11670 2890 c0 -5 5 -10 10 -10 6 0 10 5 10 10 0 6 -4 10 -10 10 -5
0 -10 -4 -10 -10z"/>
<path d="M10705 2880 c3 -5 18 -10 32 -10 32 0 28 5 -10 14 -19 4 -26 3 -22
-4z"/>
<path d="M10955 2869 c3 -15 0 -19 -11 -15 -11 4 -14 1 -9 -13 5 -16 2 -18
-15 -14 -21 6 -28 23 -8 23 6 0 9 2 6 5 -8 8 -38 -6 -38 -17 0 -6 8 -17 18
-24 14 -12 12 -12 -18 -2 -19 6 -41 15 -47 21 -7 5 -13 6 -13 1 0 -5 38 -28
85 -51 97 -49 165 -58 165 -23 0 16 5 19 29 14 20 -4 30 -1 34 10 5 12 1 14
-23 9 -32 -6 -43 12 -12 20 12 3 11 5 -6 6 -13 0 -30 8 -39 16 -8 9 -18 13
-22 9 -3 -4 0 -9 7 -11 6 -3 12 -13 12 -24 0 -18 -1 -18 -19 -2 -11 9 -17 21
-14 26 3 6 1 7 -5 3 -7 -4 -12 -14 -12 -22 0 -8 -7 -14 -15 -14 -8 0 -15 5
-15 11 0 5 4 8 9 4 6 -3 9 3 8 14 -1 16 -4 17 -15 9 -10 -9 -12 -5 -7 20 3 18
1 32 -4 32 -6 0 -8 -9 -6 -21z"/>
<path d="M11210 2886 c0 -2 7 -6 15 -10 8 -3 15 -1 15 4 0 6 -7 10 -15 10 -8
0 -15 -2 -15 -4z"/>
<path d="M10556 2867 c3 -10 9 -15 12 -12 3 3 0 11 -7 18 -10 9 -11 8 -5 -6z"/>
<path d="M10770 2861 c0 -5 9 -11 21 -14 16 -4 18 -3 8 9 -13 16 -29 19 -29 5z"/>
<path d="M11669 2868 c-1 -2 -2 -22 -4 -45 -1 -28 2 -44 11 -47 11 -4 14 6 14
44 0 28 -4 50 -10 50 -5 0 -10 -1 -11 -2z"/>
<path d="M11970 2849 c0 -11 5 -17 10 -14 6 3 10 13 10 21 0 8 -4 14 -10 14
-5 0 -10 -9 -10 -21z"/>
<path d="M11105 2840 c-4 -6 3 -10 14 -10 25 0 27 6 6 13 -8 4 -17 2 -20 -3z"/>
<path d="M9628 2813 c7 -3 16 -2 19 1 4 3 -2 6 -13 5 -11 0 -14 -3 -6 -6z"/>
<path d="M11117 2753 c18 -2 50 -2 70 0 21 2 7 4 -32 4 -38 0 -55 -2 -38 -4z"/>
<path d="M11185 2710 c-3 -6 1 -7 9 -4 18 7 21 14 7 14 -6 0 -13 -4 -16 -10z"/>
<path d="M12910 2610 c0 -5 5 -10 11 -10 5 0 7 5 4 10 -3 6 -8 10 -11 10 -2 0
-4 -4 -4 -10z"/>
<path d="M12957 2593 c-4 -3 -7 -15 -7 -26 0 -25 13 -14 17 13 3 21 1 24 -10
13z"/>
<path d="M13445 2340 c-3 -6 1 -7 9 -4 18 7 21 14 7 14 -6 0 -13 -4 -16 -10z"/>
<path d="M13256 2005 c4 -8 11 -15 16 -15 6 0 5 6 -2 15 -7 8 -14 15 -16 15
-2 0 -1 -7 2 -15z"/>
<path d="M13567 2009 c7 -7 15 -10 18 -7 3 3 -2 9 -12 12 -14 6 -15 5 -6 -5z"/>
<path d="M13950 1896 c0 -2 7 -7 16 -10 8 -3 12 -2 9 4 -6 10 -25 14 -25 6z"/>
<path d="M14045 1843 c64 -43 94 -70 87 -79 -4 -5 0 -3 9 4 13 10 19 9 30 -5
13 -16 12 -17 -3 -4 -10 7 -18 9 -18 4 0 -15 49 -61 110 -104 30 -21 66 -47
79 -57 l24 -19 -39 -13 c-45 -14 -66 -30 -41 -30 9 0 21 -9 26 -19 6 -10 29
-33 51 -51 l40 -32 0 46 c0 39 -3 45 -17 40 -17 -5 -17 -5 -1 5 12 8 16 24 15
61 l-1 50 -124 80 c-68 44 -125 80 -127 80 -3 0 -29 16 -59 35 -64 41 -100 48
-41 8z m185 -123 c0 -15 -5 -12 -26 11 -19 22 -19 22 4 10 12 -6 22 -16 22
-21z m110 -66 c0 -2 -9 0 -20 6 -11 6 -20 13 -20 16 0 2 9 0 20 -6 11 -6 20
-13 20 -16z m40 -91 c0 -8 -47 -33 -62 -33 -20 0 -5 17 25 27 17 5 33 11 35
12 1 0 2 -2 2 -6z"/>
<path d="M13410 1825 c13 -14 25 -25 27 -25 9 0 -33 49 -41 50 -5 0 1 -11 14
-25z"/>
<path d="M13440 1782 c0 -12 19 -26 26 -19 2 2 -2 10 -11 17 -9 8 -15 8 -15 2z"/>
<path d="M13750 1510 c0 -5 5 -10 11 -10 5 0 7 5 4 10 -3 6 -8 10 -11 10 -2 0
-4 -4 -4 -10z"/>
<path d="M14363 1230 c-34 -14 -28 -21 7 -9 17 6 30 13 30 15 0 6 -12 4 -37
-6z"/>
<path d="M14365 1060 c-3 -6 1 -7 9 -4 18 7 21 14 7 14 -6 0 -13 -4 -16 -10z"/>
<path d="M14316 861 c-3 -5 5 -11 19 -13 20 -4 23 -3 14 8 -13 16 -25 18 -33
5z"/>
<path d="M14240 719 c-34 -6 -33 -6 13 -8 46 -1 59 3 35 11 -7 2 -29 1 -48 -3z"/>
</g>
</svg>
