<?xml version="1.0" standalone="no"?>
<!DOCTYPE svg PUBLIC "-//W3C//DTD SVG 20010904//EN"
 "http://www.w3.org/TR/2001/REC-SVG-20010904/DTD/svg10.dtd">
<svg version="1.0" xmlns="http://www.w3.org/2000/svg"
 width="64.000000pt" height="64.000000pt" viewBox="0 0 64.000000 64.000000"
 preserveAspectRatio="xMidYMid meet">
<metadata>
Created by potrace 1.16, written by Peter Selinger 2001-2019
</metadata>
<g transform="translate(0.000000,64.000000) scale(0.100000,-0.100000)"
fill="#000000" stroke="none">
<path d="M50 600 c-19 -19 -20 -33 -20 -253 0 -214 2 -235 18 -250 16 -15 47
-17 231 -17 213 0 213 0 243 -25 37 -32 63 -32 83 -1 21 31 14 44 -64 120 -48
48 -63 57 -74 48 -24 -20 -26 -2 -5 34 40 67 8 173 -64 210 -33 17 -55 8 -23
-10 63 -36 96 -102 81 -161 -4 -14 -22 -43 -41 -63 -31 -35 -37 -37 -94 -37
-52 0 -63 4 -90 29 -75 72 -60 178 34 232 32 18 10 27 -23 10 -51 -26 -77 -73
-77 -138 0 -63 19 -97 75 -136 42 -28 112 -30 157 -3 35 22 47 18 30 -10 -10
-15 -7 -23 18 -49 l29 -30 -200 0 c-142 0 -203 3 -212 12 -9 9 -12 68 -12 205
l0 193 270 0 270 0 2 -177 c2 -130 6 -177 16 -181 9 -3 12 43 12 206 0 197 -1
211 -21 236 l-20 26 -255 0 c-241 0 -255 -1 -274 -20z m538 -37 l3 -23 -270 0
c-158 0 -271 4 -271 9 0 41 0 41 274 39 l261 -3 3 -22z"/>
<path d="M96 571 c-4 -5 -2 -12 3 -15 5 -4 12 -2 15 3 4 5 2 12 -3 15 -5 4
-12 2 -15 -3z"/>
<path d="M140 564 c0 -8 5 -12 10 -9 6 3 10 10 10 16 0 5 -4 9 -10 9 -5 0 -10
-7 -10 -16z"/>
<path d="M186 571 c-4 -5 -2 -12 3 -15 5 -4 12 -2 15 3 4 5 2 12 -3 15 -5 4
-12 2 -15 -3z"/>
<path d="M275 570 c-3 -5 0 -13 7 -15 26 -10 273 -1 271 10 -4 14 -269 19
-278 5z"/>
<path d="M310 480 c0 -5 5 -10 10 -10 6 0 10 5 10 10 0 6 -4 10 -10 10 -5 0
-10 -4 -10 -10z"/>
<path d="M445 470 c3 -5 28 -10 56 -10 27 0 49 5 49 10 0 6 -25 10 -56 10 -34
0 -53 -4 -49 -10z"/>
<path d="M492 428 c7 -20 58 -23 58 -4 0 11 -10 16 -31 16 -20 0 -29 -4 -27
-12z"/>
<path d="M305 412 c-5 -4 -15 -16 -21 -27 -6 -11 -17 -21 -25 -21 -8 -1 -18
-2 -23 -3 -6 0 -5 -6 2 -13 16 -16 15 -28 -3 -28 -8 0 -15 -4 -15 -10 0 -5 7
-10 15 -10 17 0 20 -16 5 -25 -6 -4 -8 -11 -4 -16 3 -5 9 -7 13 -4 5 2 23 -2
40 -11 28 -14 34 -14 62 0 17 9 35 13 40 11 4 -3 10 -1 13 4 4 5 2 12 -4 16
-15 9 -12 25 5 25 8 0 15 5 15 10 0 6 -7 10 -15 10 -17 0 -20 16 -5 25 18 11
11 25 -12 22 -15 -1 -26 6 -36 26 -13 27 -28 33 -47 19z"/>
<path d="M90 200 c0 -5 16 -10 35 -10 19 0 35 5 35 10 0 6 -16 10 -35 10 -19
0 -35 -4 -35 -10z"/>
<path d="M97 164 c-14 -14 6 -24 49 -24 32 0 44 4 42 13 -5 13 -79 22 -91 11z"/>
<path d="M216 161 c-4 -5 -2 -12 3 -15 5 -4 12 -2 15 3 4 5 2 12 -3 15 -5 4
-12 2 -15 -3z"/>
</g>
</svg>
